<svg xmlns="http://www.w3.org/2000/svg" xmlns:xlink="http://www.w3.org/1999/xlink" xmlns:lucid="lucid" width="691.25" height="1302"><g transform="translate(587.2257092533982 682.1999999999996)" lucid:page-tab-id="2bIpWRciS51s"><path d="M-1000-1000H500v2000h-1500z" fill="#fff"/><path d="M-566.23-380.85a6 6 0 0 1 6-6h277.26a6 6 0 0 1 6 6V592.8a6 6 0 0 1-6 6h-277.26a6 6 0 0 1-6-6z" stroke="#282c33" stroke-width="2" fill-opacity="0"/><path d="M-566.23-430.45a6 6 0 0 1 6-6h49.85a6 6 0 0 1 6 6v25.6a6 6 0 0 1-6 6h-49.85a6 6 0 0 1-6-6z" fill="#282c33"/><use xlink:href="#a" transform="matrix(1,0,0,1,-558.2257092533982,-426.05167887639254) translate(0 14.6)"/><path d="M-238.47-380.85a6 6 0 0 1 6-6H44.78a6 6 0 0 1 6 6V592.8a6 6 0 0 1-6 6h-277.25a6 6 0 0 1-6-6z" stroke="#282c33" stroke-width="2" fill-opacity="0"/><path d="M-238.47-430.45a6 6 0 0 1 6-6h64.2a6 6 0 0 1 6 6v25.6a6 6 0 0 1-6 6h-64.2a6 6 0 0 1-6-6z" fill="#282c33"/><use xlink:href="#b" transform="matrix(1,0,0,1,-230.471453733011,-426.05167887639266) translate(0 14.6)"/><path d="M-515.1-234.1a6 6 0 0 1 6-6h167.25a6 6 0 0 1 6 6v126.8a6 6 0 0 1-6 6H-509.1a6 6 0 0 1-6-6z" stroke="#282c33" stroke-width="2" fill="#dedeff"/><use xlink:href="#c" transform="matrix(1,0,0,1,-503.10283701359185,-228.11150374754197) translate(34.7 39.55625)"/><use xlink:href="#d" transform="matrix(1,0,0,1,-503.10283701359185,-228.11150374754197) translate(81.7 39.55625)"/><use xlink:href="#e" transform="matrix(1,0,0,1,-503.10283701359185,-228.11150374754197) translate(7.549999999999997 61.15625)"/><use xlink:href="#f" transform="matrix(1,0,0,1,-503.10283701359185,-228.11150374754197) translate(85.5 61.15625)"/><use xlink:href="#g" transform="matrix(1,0,0,1,-503.10283701359185,-228.11150374754197) translate(105.5 61.15625)"/><use xlink:href="#h" transform="matrix(1,0,0,1,-503.10283701359185,-228.11150374754197) translate(34.525 82.75625000000001)"/><use xlink:href="#i" transform="matrix(1,0,0,1,-503.10283701359185,-228.11150374754197) translate(64.525 82.75625000000001)"/><path d="M-385.48-354.43c22.1 0 40 17.9 40 40s-17.9 40-40 40h-80c-22.1 0-40-17.9-40-40s17.9-40 40-40z" stroke="#282c33" stroke-width="2" fill="#dedeff"/><use xlink:href="#j" transform="matrix(1,0,0,1,-500.477127760194,-349.4326611269728) translate(56.025 38.4625)"/><path d="M-425.48-272.93v15.44" stroke="#3a414a" fill="none"/><path d="M-425-272.92h-.95v-.5h.95z" stroke="#3a414a" stroke-width=".05" fill="#3a414a"/><path d="M-425.48-242.73L-430.1-257h9.26z" stroke="#3a414a" fill="#3a414a"/><path d="M-168.47-224.3a6 6 0 0 1 6-6h148a6 6 0 0 1 6 6v108a6 6 0 0 1-6 6h-148a6 6 0 0 1-6-6z" stroke="#282c33" stroke-width="2" fill="#dedeff"/><use xlink:href="#k" transform="matrix(1,0,0,1,-156.471453733011,-218.291762339667) translate(13.25 41.4)"/><use xlink:href="#d" transform="matrix(1,0,0,1,-156.471453733011,-218.291762339667) translate(83.15 41.4)"/><use xlink:href="#l" transform="matrix(1,0,0,1,-156.471453733011,-218.291762339667) translate(31.525 63)"/><path d="M-48.47-350.3c22.1 0 40 17.92 40 40 0 22.1-17.9 40-40 40h-80c-22.1 0-40-17.9-40-40 0-22.08 17.9-40 40-40z" stroke="#282c33" stroke-width="2" fill="#dedeff"/><use xlink:href="#j" transform="matrix(1,0,0,1,-163.471453733011,-345.291762339667) translate(56.025 38.4625)"/><path d="M-88.47-268.8v21.12" stroke="#3a414a" fill="none"/><path d="M-88-268.78h-.95v-.5h.95z" stroke="#3a414a" stroke-width=".05" fill="#3a414a"/><path d="M-88.47-232.9l-4.64-14.28h9.26z" stroke="#3a414a" fill="#3a414a"/><path d="M-334.35-170.6l148.5.2" stroke="#3a414a" fill="none"/><path d="M-334.34-171.06v.95h-.5v-.96z" stroke="#3a414a" stroke-width=".05" fill="#3a414a"/><path d="M-171.1-170.4l-14.26 4.63v-9.27z" stroke="#3a414a" fill="#3a414a"/><path d="M-168.47 324.8a6 6 0 0 1 6-6h148a6 6 0 0 1 6 6v108a6 6 0 0 1-6 6h-148a6 6 0 0 1-6-6z" stroke="#282c33" stroke-width="2" fill="#dedeff"/><use xlink:href="#m" transform="matrix(1,0,0,1,-156.471453733011,330.8000000000002) translate(17.025 41.4)"/><use xlink:href="#n" transform="matrix(1,0,0,1,-156.471453733011,330.8000000000002) translate(93.975 41.4)"/><use xlink:href="#o" transform="matrix(1,0,0,1,-156.471453733011,330.8000000000002) translate(9.224999999999994 63)"/><use xlink:href="#l" transform="matrix(1,0,0,1,-156.471453733011,330.8000000000002) translate(53.824999999999996 63)"/><path d="M-169.97 378.8h-148.5" stroke="#3a414a" fill="none"/><path d="M-169.47 379.27h-.5v-.94h.5z" stroke="#3a414a" stroke-width=".05" fill="#3a414a"/><path d="M-333.23 378.8l14.26-4.63v9.26z" stroke="#3a414a" fill="#3a414a"/><path d="M-495.85 324.8a6 6 0 0 1 6-6h148a6 6 0 0 1 6 6v108a6 6 0 0 1-6 6h-148a6 6 0 0 1-6-6z" stroke="#282c33" stroke-width="2" fill="#dedeff"/><use xlink:href="#p" transform="matrix(1,0,0,1,-483.8514185067961,330.8000000000002) translate(23.574999999999996 41.4)"/><use xlink:href="#n" transform="matrix(1,0,0,1,-483.8514185067961,330.8000000000002) translate(87.42500000000001 41.4)"/><use xlink:href="#q" transform="matrix(1,0,0,1,-483.8514185067961,330.8000000000002) translate(31.025 63)"/><path d="M-168.47 147.5a6 6 0 0 1 6-6h148a6 6 0 0 1 6 6v108a6 6 0 0 1-6 6h-148a6 6 0 0 1-6-6z" stroke="#282c33" stroke-width="2" fill="#dedeff"/><use xlink:href="#r" transform="matrix(1,0,0,1,-156.471453733011,153.48878570309603) translate(3.5999999999999943 29.4)"/><use xlink:href="#h" transform="matrix(1,0,0,1,-156.471453733011,153.48878570309603) translate(60.5 29.4)"/><use xlink:href="#s" transform="matrix(1,0,0,1,-156.471453733011,153.48878570309603) translate(90.5 29.4)"/><use xlink:href="#t" transform="matrix(1,0,0,1,-156.471453733011,153.48878570309603) translate(20.049999999999997 51)"/><use xlink:href="#h" transform="matrix(1,0,0,1,-156.471453733011,153.48878570309603) translate(39 51)"/><use xlink:href="#u" transform="matrix(1,0,0,1,-156.471453733011,153.48878570309603) translate(69 51)"/><use xlink:href="#v" transform="matrix(1,0,0,1,-156.471453733011,153.48878570309603) translate(29.1 72.60000000000001)"/><use xlink:href="#w" transform="matrix(1,0,0,1,-156.471453733011,153.48878570309603) translate(85 72.60000000000001)"/><path d="M-88.47 263v38.42" stroke="#3a414a" fill="none"/><path d="M-88 263h-.95v-.5h.95z" stroke="#3a414a" stroke-width=".05" fill="#3a414a"/><path d="M-88.47 316.18l-4.64-14.26h9.26z" stroke="#3a414a" fill="#3a414a"/><path d="M-416 440.3l-.1 41.12" stroke="#3a414a" fill="none"/><path d="M-415.52 440.3h-.95v-.5h.95z" stroke="#3a414a" stroke-width=".05" fill="#3a414a"/><path d="M-416.13 496.18l-4.6-14.28 9.27.03z" stroke="#3a414a" fill="#3a414a"/><path d="M-376.23 498.8c22.1 0 40 17.9 40 40s-17.9 40-40 40h-80c-22.1 0-40-17.9-40-40s17.9-40 40-40z" stroke="#282c33" stroke-width="2" fill="#dedeff"/><g><use xlink:href="#x" transform="matrix(1,0,0,1,-484.22570925339824,510.8000000000002) translate(52 31.9)"/></g><path d="M-566.23-655.2a6 6 0 0 1 6-6H77.03a6 6 0 0 1 6 6v156a6 6 0 0 1-6 6h-637.26a6 6 0 0 1-6-6z" stroke="#282c33" stroke-width="2" fill="#cfe4ff"/><g><use xlink:href="#y" transform="matrix(1,0,0,1,-561.2257092533982,-656.1999999999996) translate(185.05555555555557 86.3125)"/><use xlink:href="#z" transform="matrix(1,0,0,1,-561.2257092533982,-656.1999999999996) translate(284.1666666666667 86.3125)"/></g><path d="M-88.2-108.8l.33 37.6" stroke="#3a414a" fill="none"/><path d="M-87.73-108.78h-.95v-.5h.94z" stroke="#3a414a" stroke-width=".05" fill="#3a414a"/><path d="M-87.74-56.44l-4.76-14.22 9.27-.1z" stroke="#3a414a" fill="#3a414a"/><path d="M-172.4-47.82a6 6 0 0 1 6-6H-9.05a6 6 0 0 1 6 6v108a6 6 0 0 1-6 6H-166.4a6 6 0 0 1-6-6z" stroke="#282c33" stroke-width="2" fill="#dedeff"/><g><use xlink:href="#r" transform="matrix(1,0,0,1,-160.4100426131081,-41.8224285938079) translate(8.599999999999994 20.4)"/><use xlink:href="#h" transform="matrix(1,0,0,1,-160.4100426131081,-41.8224285938079) translate(65.5 20.4)"/><use xlink:href="#s" transform="matrix(1,0,0,1,-160.4100426131081,-41.8224285938079) translate(95.5 20.4)"/><use xlink:href="#t" transform="matrix(1,0,0,1,-160.4100426131081,-41.8224285938079) translate(20.075000000000003 42)"/><use xlink:href="#h" transform="matrix(1,0,0,1,-160.4100426131081,-41.8224285938079) translate(39.025000000000006 42)"/><use xlink:href="#A" transform="matrix(1,0,0,1,-160.4100426131081,-41.8224285938079) translate(69.025 42)"/><use xlink:href="#B" transform="matrix(1,0,0,1,-160.4100426131081,-41.8224285938079) translate(95.925 42)"/><use xlink:href="#C" transform="matrix(1,0,0,1,-160.4100426131081,-41.8224285938079) translate(11.575000000000003 63.6)"/><use xlink:href="#D" transform="matrix(1,0,0,1,-160.4100426131081,-41.8224285938079) translate(83.525 63.6)"/><use xlink:href="#E" transform="matrix(1,0,0,1,-160.4100426131081,-41.8224285938079) translate(5.575000000000003 85.20000000000002)"/><use xlink:href="#F" transform="matrix(1,0,0,1,-160.4100426131081,-41.8224285938079) translate(43.525000000000006 85.20000000000002)"/><use xlink:href="#h" transform="matrix(1,0,0,1,-160.4100426131081,-41.8224285938079) translate(87.525 85.20000000000002)"/><use xlink:href="#G" transform="matrix(1,0,0,1,-160.4100426131081,-41.8224285938079) translate(117.525 85.20000000000002)"/></g><path d="M-87.96 67.68l-.22 56.42" stroke="#3a414a" fill="none"/><path d="M-87.48 67.7h-.95v-.52h.95z" stroke="#3a414a" stroke-width=".05" fill="#3a414a"/><path d="M-88.23 138.87l-4.58-14.28 9.26.02z" stroke="#3a414a" fill="#3a414a"/><defs><path fill="#fff" d="M212-179c-10-28-35-45-73-45-59 0-87 40-87 99 0 60 29 101 89 101 43 0 62-24 78-52l27 14C228-24 195 4 139 4 59 4 22-46 18-125c-6-104 99-153 187-111 19 9 31 26 39 46" id="H"/><path fill="#fff" d="M24 0v-261h32V0H24" id="I"/><path fill="#fff" d="M24-231v-30h32v30H24zM24 0v-190h32V0H24" id="J"/><path fill="#fff" d="M100-194c63 0 86 42 84 106H49c0 40 14 67 53 68 26 1 43-12 49-29l28 8c-11 28-37 45-77 45C44 4 14-33 15-96c1-61 26-98 85-98zm52 81c6-60-76-77-97-28-3 7-6 17-6 28h103" id="K"/><path fill="#fff" d="M117-194c89-4 53 116 60 194h-32v-121c0-31-8-49-39-48C34-167 62-67 57 0H25l-1-190h30c1 10-1 24 2 32 11-22 29-35 61-36" id="L"/><path fill="#fff" d="M59-47c-2 24 18 29 38 22v24C64 9 27 4 27-40v-127H5v-23h24l9-43h21v43h35v23H59v120" id="M"/><g id="a"><use transform="matrix(0.05,0,0,0.05,0,0)" xlink:href="#H"/><use transform="matrix(0.05,0,0,0.05,12.950000000000001,0)" xlink:href="#I"/><use transform="matrix(0.05,0,0,0.05,16.900000000000002,0)" xlink:href="#J"/><use transform="matrix(0.05,0,0,0.05,20.85,0)" xlink:href="#K"/><use transform="matrix(0.05,0,0,0.05,30.85,0)" xlink:href="#L"/><use transform="matrix(0.05,0,0,0.05,40.85,0)" xlink:href="#M"/></g><path fill="#fff" d="M127-220V0H93v-220H8v-28h204v28h-85" id="N"/><path fill="#fff" d="M114-163C36-179 61-72 57 0H25l-1-190h30c1 12-1 29 2 39 6-27 23-49 58-41v29" id="O"/><path fill="#fff" d="M141-36C126-15 110 5 73 4 37 3 15-17 15-53c-1-64 63-63 125-63 3-35-9-54-41-54-24 1-41 7-42 31l-33-3c5-37 33-52 76-52 45 0 72 20 72 64v82c-1 20 7 32 28 27v20c-31 9-61-2-59-35zM48-53c0 20 12 33 32 33 41-3 63-29 60-74-43 2-92-5-92 41" id="P"/><path fill="#fff" d="M96-169c-40 0-48 33-48 73s9 75 48 75c24 0 41-14 43-38l32 2c-6 37-31 61-74 61-59 0-76-41-82-99-10-93 101-131 147-64 4 7 5 14 7 22l-32 3c-4-21-16-35-41-35" id="Q"/><path fill="#fff" d="M143 0L79-87 56-68V0H24v-261h32v163l83-92h37l-77 82L181 0h-38" id="R"/><g id="b"><use transform="matrix(0.05,0,0,0.05,0,0)" xlink:href="#N"/><use transform="matrix(0.05,0,0,0.05,10.3,0)" xlink:href="#O"/><use transform="matrix(0.05,0,0,0.05,16.25,0)" xlink:href="#P"/><use transform="matrix(0.05,0,0,0.05,26.25,0)" xlink:href="#Q"/><use transform="matrix(0.05,0,0,0.05,35.25,0)" xlink:href="#R"/><use transform="matrix(0.05,0,0,0.05,44.25,0)" xlink:href="#K"/><use transform="matrix(0.05,0,0,0.05,54.25,0)" xlink:href="#O"/></g><path d="M185-189c-5-48-123-54-124 2 14 75 158 14 163 119 3 78-121 87-175 55-17-10-28-26-33-46l33-7c5 56 141 63 141-1 0-78-155-14-162-118-5-82 145-84 179-34 5 7 8 16 11 25" id="S"/><path d="M100-194c63 0 86 42 84 106H49c0 40 14 67 53 68 26 1 43-12 49-29l28 8c-11 28-37 45-77 45C44 4 14-33 15-96c1-61 26-98 85-98zm52 81c6-60-76-77-97-28-3 7-6 17-6 28h103" id="T"/><path d="M117-194c89-4 53 116 60 194h-32v-121c0-31-8-49-39-48C34-167 62-67 57 0H25l-1-190h30c1 10-1 24 2 32 11-22 29-35 61-36" id="U"/><path d="M85-194c31 0 48 13 60 33l-1-100h32l1 261h-30c-2-10 0-23-3-31C134-8 116 4 85 4 32 4 16-35 15-94c0-66 23-100 70-100zm9 24c-40 0-46 34-46 75 0 40 6 74 45 74 42 0 51-32 51-76 0-42-9-74-50-73" id="V"/><g id="c"><use transform="matrix(0.05,0,0,0.05,0,0)" xlink:href="#S"/><use transform="matrix(0.05,0,0,0.05,12,0)" xlink:href="#T"/><use transform="matrix(0.05,0,0,0.05,22,0)" xlink:href="#U"/><use transform="matrix(0.05,0,0,0.05,32,0)" xlink:href="#V"/></g><path d="M30 0v-248h187v28H63v79h144v27H63v87h162V0H30" id="W"/><path d="M195 0l-74-108L45 0H8l94-129-87-119h37l69 98 67-98h37l-84 118L233 0h-38" id="X"/><path d="M33 0v-248h34V0H33" id="Y"/><path d="M127-220V0H93v-220H8v-28h204v28h-85" id="Z"/><g id="d"><use transform="matrix(0.05,0,0,0.05,0,0)" xlink:href="#W"/><use transform="matrix(0.05,0,0,0.05,12,0)" xlink:href="#X"/><use transform="matrix(0.05,0,0,0.05,24,0)" xlink:href="#Y"/><use transform="matrix(0.05,0,0,0.05,29,0)" xlink:href="#Z"/></g><path d="M210-169c-67 3-38 105-44 169h-31v-121c0-29-5-50-35-48C34-165 62-65 56 0H25l-1-190h30c1 10-1 24 2 32 10-44 99-50 107 0 11-21 27-35 58-36 85-2 47 119 55 194h-31v-121c0-29-5-49-35-48" id="aa"/><path d="M135-143c-3-34-86-38-87 0 15 53 115 12 119 90S17 21 10-45l28-5c4 36 97 45 98 0-10-56-113-15-118-90-4-57 82-63 122-42 12 7 21 19 24 35" id="ab"/><path d="M141-36C126-15 110 5 73 4 37 3 15-17 15-53c-1-64 63-63 125-63 3-35-9-54-41-54-24 1-41 7-42 31l-33-3c5-37 33-52 76-52 45 0 72 20 72 64v82c-1 20 7 32 28 27v20c-31 9-61-2-59-35zM48-53c0 20 12 33 32 33 41-3 63-29 60-74-43 2-92-5-92 41" id="ac"/><path d="M177-190C167-65 218 103 67 71c-23-6-38-20-44-43l32-5c15 47 100 32 89-28v-30C133-14 115 1 83 1 29 1 15-40 15-95c0-56 16-97 71-98 29-1 48 16 59 35 1-10 0-23 2-32h30zM94-22c36 0 50-32 50-73 0-42-14-75-50-75-39 0-46 34-46 75s6 73 46 73" id="ad"/><g id="e"><use transform="matrix(0.05,0,0,0.05,0,0)" xlink:href="#aa"/><use transform="matrix(0.05,0,0,0.05,14.950000000000001,0)" xlink:href="#T"/><use transform="matrix(0.05,0,0,0.05,24.950000000000003,0)" xlink:href="#ab"/><use transform="matrix(0.05,0,0,0.05,33.95,0)" xlink:href="#ab"/><use transform="matrix(0.05,0,0,0.05,42.95,0)" xlink:href="#ac"/><use transform="matrix(0.05,0,0,0.05,52.95,0)" xlink:href="#ad"/><use transform="matrix(0.05,0,0,0.05,62.95,0)" xlink:href="#T"/></g><path d="M59-47c-2 24 18 29 38 22v24C64 9 27 4 27-40v-127H5v-23h24l9-43h21v43h35v23H59v120" id="ae"/><path d="M100-194c62-1 85 37 85 99 1 63-27 99-86 99S16-35 15-95c0-66 28-99 85-99zM99-20c44 1 53-31 53-75 0-43-8-75-51-75s-53 32-53 75 10 74 51 75" id="af"/><g id="f"><use transform="matrix(0.05,0,0,0.05,0,0)" xlink:href="#ae"/><use transform="matrix(0.05,0,0,0.05,5,0)" xlink:href="#af"/></g><path d="M24 0v-261h32V0H24" id="ag"/><path d="M108 0H70L1-190h34L89-25l56-165h34" id="ah"/><g id="g"><use transform="matrix(0.05,0,0,0.05,0,0)" xlink:href="#ag"/><use transform="matrix(0.05,0,0,0.05,3.95,0)" xlink:href="#T"/><use transform="matrix(0.05,0,0,0.05,13.949999999999998,0)" xlink:href="#ac"/><use transform="matrix(0.05,0,0,0.05,23.95,0)" xlink:href="#ah"/><use transform="matrix(0.05,0,0,0.05,32.95,0)" xlink:href="#T"/></g><path d="M106-169C34-169 62-67 57 0H25v-261h32l-1 103c12-21 28-36 61-36 89 0 53 116 60 194h-32v-121c2-32-8-49-39-48" id="ai"/><g id="h"><use transform="matrix(0.05,0,0,0.05,0,0)" xlink:href="#ae"/><use transform="matrix(0.05,0,0,0.05,5,0)" xlink:href="#ai"/><use transform="matrix(0.05,0,0,0.05,15,0)" xlink:href="#T"/></g><path d="M179-190L93 31C79 59 56 82 12 73V49c39 6 53-20 64-50L1-190h34L92-34l54-156h33" id="aj"/><g id="i"><use transform="matrix(0.05,0,0,0.05,0,0)" xlink:href="#ab"/><use transform="matrix(0.05,0,0,0.05,9,0)" xlink:href="#aj"/><use transform="matrix(0.05,0,0,0.05,18,0)" xlink:href="#ab"/><use transform="matrix(0.05,0,0,0.05,27,0)" xlink:href="#ae"/><use transform="matrix(0.05,0,0,0.05,32,0)" xlink:href="#T"/><use transform="matrix(0.05,0,0,0.05,42,0)" xlink:href="#aa"/></g><path d="M114-163C36-179 61-72 57 0H25l-1-190h30c1 12-1 29 2 39 6-27 23-49 58-41v29" id="ak"/><g id="j"><use transform="matrix(0.05,0,0,0.05,0,0)" xlink:href="#S"/><use transform="matrix(0.05,0,0,0.05,12,0)" xlink:href="#ae"/><use transform="matrix(0.05,0,0,0.05,17,0)" xlink:href="#ac"/><use transform="matrix(0.05,0,0,0.05,27,0)" xlink:href="#ak"/><use transform="matrix(0.05,0,0,0.05,32.95,0)" xlink:href="#ae"/></g><path d="M233-177c-1 41-23 64-60 70L243 0h-38l-65-103H63V0H30v-248c88 3 205-21 203 71zM63-129c60-2 137 13 137-47 0-61-80-42-137-45v92" id="al"/><path d="M96-169c-40 0-48 33-48 73s9 75 48 75c24 0 41-14 43-38l32 2c-6 37-31 61-74 61-59 0-76-41-82-99-10-93 101-131 147-64 4 7 5 14 7 22l-32 3c-4-21-16-35-41-35" id="am"/><path d="M24-231v-30h32v30H24zM24 0v-190h32V0H24" id="an"/><g id="k"><use transform="matrix(0.05,0,0,0.05,0,0)" xlink:href="#al"/><use transform="matrix(0.05,0,0,0.05,12.950000000000001,0)" xlink:href="#T"/><use transform="matrix(0.05,0,0,0.05,22.950000000000003,0)" xlink:href="#am"/><use transform="matrix(0.05,0,0,0.05,31.950000000000003,0)" xlink:href="#T"/><use transform="matrix(0.05,0,0,0.05,41.95,0)" xlink:href="#an"/><use transform="matrix(0.05,0,0,0.05,45.900000000000006,0)" xlink:href="#ah"/><use transform="matrix(0.05,0,0,0.05,54.900000000000006,0)" xlink:href="#T"/></g><g id="l"><use transform="matrix(0.05,0,0,0.05,0,0)" xlink:href="#aa"/><use transform="matrix(0.05,0,0,0.05,14.950000000000001,0)" xlink:href="#T"/><use transform="matrix(0.05,0,0,0.05,24.950000000000003,0)" xlink:href="#ab"/><use transform="matrix(0.05,0,0,0.05,33.95,0)" xlink:href="#ab"/><use transform="matrix(0.05,0,0,0.05,42.95,0)" xlink:href="#ac"/><use transform="matrix(0.05,0,0,0.05,52.95,0)" xlink:href="#ad"/><use transform="matrix(0.05,0,0,0.05,62.95,0)" xlink:href="#T"/></g><path d="M115-194c55 1 70 41 70 98S169 2 115 4C84 4 66-9 55-30l1 105H24l-1-265h31l2 30c10-21 28-34 59-34zm-8 174c40 0 45-34 45-75s-6-73-45-74c-42 0-51 32-51 76 0 43 10 73 51 73" id="ao"/><g id="m"><use transform="matrix(0.05,0,0,0.05,0,0)" xlink:href="#al"/><use transform="matrix(0.05,0,0,0.05,12.950000000000001,0)" xlink:href="#T"/><use transform="matrix(0.05,0,0,0.05,22.950000000000003,0)" xlink:href="#ab"/><use transform="matrix(0.05,0,0,0.05,31.950000000000003,0)" xlink:href="#ao"/><use transform="matrix(0.05,0,0,0.05,41.95,0)" xlink:href="#af"/><use transform="matrix(0.05,0,0,0.05,51.95,0)" xlink:href="#U"/><use transform="matrix(0.05,0,0,0.05,61.95,0)" xlink:href="#V"/></g><g id="n"><use transform="matrix(0.05,0,0,0.05,0,0)" xlink:href="#ae"/><use transform="matrix(0.05,0,0,0.05,5,0)" xlink:href="#ai"/><use transform="matrix(0.05,0,0,0.05,15,0)" xlink:href="#T"/></g><g id="o"><use transform="matrix(0.05,0,0,0.05,0,0)" xlink:href="#W"/><use transform="matrix(0.05,0,0,0.05,12,0)" xlink:href="#X"/><use transform="matrix(0.05,0,0,0.05,24,0)" xlink:href="#Y"/><use transform="matrix(0.05,0,0,0.05,29,0)" xlink:href="#Z"/></g><path d="M30-248c118-7 216 8 213 122C240-48 200 0 122 0H30v-248zM63-27c89 8 146-16 146-99s-60-101-146-95v194" id="ap"/><g id="p"><use transform="matrix(0.05,0,0,0.05,0,0)" xlink:href="#ap"/><use transform="matrix(0.05,0,0,0.05,12.950000000000001,0)" xlink:href="#an"/><use transform="matrix(0.05,0,0,0.05,16.900000000000002,0)" xlink:href="#ab"/><use transform="matrix(0.05,0,0,0.05,25.900000000000002,0)" xlink:href="#ao"/><use transform="matrix(0.05,0,0,0.05,35.900000000000006,0)" xlink:href="#ag"/><use transform="matrix(0.05,0,0,0.05,39.85000000000001,0)" xlink:href="#ac"/><use transform="matrix(0.05,0,0,0.05,49.85000000000001,0)" xlink:href="#aj"/></g><g id="q"><use transform="matrix(0.05,0,0,0.05,0,0)" xlink:href="#ak"/><use transform="matrix(0.05,0,0,0.05,5.95,0)" xlink:href="#T"/><use transform="matrix(0.05,0,0,0.05,15.949999999999998,0)" xlink:href="#ab"/><use transform="matrix(0.05,0,0,0.05,24.95,0)" xlink:href="#ao"/><use transform="matrix(0.05,0,0,0.05,34.95,0)" xlink:href="#af"/><use transform="matrix(0.05,0,0,0.05,44.95,0)" xlink:href="#U"/><use transform="matrix(0.05,0,0,0.05,54.95,0)" xlink:href="#ab"/><use transform="matrix(0.05,0,0,0.05,63.95,0)" xlink:href="#T"/></g><g id="r"><use transform="matrix(0.05,0,0,0.05,0,0)" xlink:href="#ap"/><use transform="matrix(0.05,0,0,0.05,12.950000000000001,0)" xlink:href="#T"/><use transform="matrix(0.05,0,0,0.05,22.950000000000003,0)" xlink:href="#ag"/><use transform="matrix(0.05,0,0,0.05,26.900000000000002,0)" xlink:href="#T"/><use transform="matrix(0.05,0,0,0.05,36.900000000000006,0)" xlink:href="#ae"/><use transform="matrix(0.05,0,0,0.05,41.900000000000006,0)" xlink:href="#T"/></g><g id="s"><use transform="matrix(0.05,0,0,0.05,0,0)" xlink:href="#am"/><use transform="matrix(0.05,0,0,0.05,9,0)" xlink:href="#ag"/><use transform="matrix(0.05,0,0,0.05,12.949999999999998,0)" xlink:href="#an"/><use transform="matrix(0.05,0,0,0.05,16.9,0)" xlink:href="#T"/><use transform="matrix(0.05,0,0,0.05,26.899999999999995,0)" xlink:href="#U"/><use transform="matrix(0.05,0,0,0.05,36.9,0)" xlink:href="#ae"/></g><g id="t"><use transform="matrix(0.05,0,0,0.05,0,0)" xlink:href="#an"/><use transform="matrix(0.05,0,0,0.05,3.95,0)" xlink:href="#U"/></g><g id="u"><use transform="matrix(0.05,0,0,0.05,0,0)" xlink:href="#ac"/><use transform="matrix(0.05,0,0,0.05,10,0)" xlink:href="#am"/><use transform="matrix(0.05,0,0,0.05,19,0)" xlink:href="#ae"/><use transform="matrix(0.05,0,0,0.05,24,0)" xlink:href="#an"/><use transform="matrix(0.05,0,0,0.05,27.950000000000003,0)" xlink:href="#ah"/><use transform="matrix(0.05,0,0,0.05,36.95,0)" xlink:href="#T"/></g><g id="v"><use transform="matrix(0.05,0,0,0.05,0,0)" xlink:href="#am"/><use transform="matrix(0.05,0,0,0.05,9,0)" xlink:href="#ag"/><use transform="matrix(0.05,0,0,0.05,12.949999999999998,0)" xlink:href="#an"/><use transform="matrix(0.05,0,0,0.05,16.9,0)" xlink:href="#T"/><use transform="matrix(0.05,0,0,0.05,26.899999999999995,0)" xlink:href="#U"/><use transform="matrix(0.05,0,0,0.05,36.9,0)" xlink:href="#ae"/><use transform="matrix(0.05,0,0,0.05,41.9,0)" xlink:href="#ab"/></g><g id="w"><use transform="matrix(0.05,0,0,0.05,0,0)" xlink:href="#ag"/><use transform="matrix(0.05,0,0,0.05,3.95,0)" xlink:href="#an"/><use transform="matrix(0.05,0,0,0.05,7.9,0)" xlink:href="#ab"/><use transform="matrix(0.05,0,0,0.05,16.9,0)" xlink:href="#ae"/></g><g id="x"><use transform="matrix(0.05,0,0,0.05,0,0)" xlink:href="#W"/><use transform="matrix(0.05,0,0,0.05,12,0)" xlink:href="#U"/><use transform="matrix(0.05,0,0,0.05,22,0)" xlink:href="#V"/></g><g id="y"><use transform="matrix(0.1111111111111111,0,0,0.1111111111111111,0,0)" xlink:href="#W"/><use transform="matrix(0.1111111111111111,0,0,0.1111111111111111,26.666666666666664,0)" xlink:href="#X"/><use transform="matrix(0.1111111111111111,0,0,0.1111111111111111,53.33333333333333,0)" xlink:href="#Y"/><use transform="matrix(0.1111111111111111,0,0,0.1111111111111111,64.44444444444444,0)" xlink:href="#Z"/></g><path d="M240 0l2-218c-23 76-54 145-80 218h-23L58-218 59 0H30v-248h44l77 211c21-75 51-140 76-211h43V0h-30" id="aq"/><path d="M140-251c81 0 123 46 123 126C263-46 219 4 140 4 59 4 17-45 17-125s42-126 123-126zm0 227c63 0 89-41 89-101s-29-99-89-99c-61 0-89 39-89 99S79-25 140-24" id="ar"/><path d="M232-93c-1 65-40 97-104 97C67 4 28-28 28-90v-158h33c8 89-33 224 67 224 102 0 64-133 71-224h33v155" id="as"/><path d="M30 0v-248h33v221h125V0H30" id="at"/><g id="z"><use transform="matrix(0.1111111111111111,0,0,0.1111111111111111,0,0)" xlink:href="#aq"/><use transform="matrix(0.1111111111111111,0,0,0.1111111111111111,33.22222222222222,0)" xlink:href="#ar"/><use transform="matrix(0.1111111111111111,0,0,0.1111111111111111,64.33333333333333,0)" xlink:href="#ap"/><use transform="matrix(0.1111111111111111,0,0,0.1111111111111111,93.1111111111111,0)" xlink:href="#as"/><use transform="matrix(0.1111111111111111,0,0,0.1111111111111111,121.88888888888889,0)" xlink:href="#at"/><use transform="matrix(0.1111111111111111,0,0,0.1111111111111111,144.1111111111111,0)" xlink:href="#W"/></g><g id="A"><use transform="matrix(0.05,0,0,0.05,0,0)" xlink:href="#ag"/><use transform="matrix(0.05,0,0,0.05,3.95,0)" xlink:href="#an"/><use transform="matrix(0.05,0,0,0.05,7.9,0)" xlink:href="#ab"/><use transform="matrix(0.05,0,0,0.05,16.9,0)" xlink:href="#ae"/></g><g id="B"><use transform="matrix(0.05,0,0,0.05,0,0)" xlink:href="#ae"/><use transform="matrix(0.05,0,0,0.05,5,0)" xlink:href="#ai"/><use transform="matrix(0.05,0,0,0.05,15,0)" xlink:href="#ac"/><use transform="matrix(0.05,0,0,0.05,25,0)" xlink:href="#ae"/></g><g id="C"><use transform="matrix(0.05,0,0,0.05,0,0)" xlink:href="#am"/><use transform="matrix(0.05,0,0,0.05,9,0)" xlink:href="#af"/><use transform="matrix(0.05,0,0,0.05,19,0)" xlink:href="#U"/><use transform="matrix(0.05,0,0,0.05,29,0)" xlink:href="#ae"/><use transform="matrix(0.05,0,0,0.05,34,0)" xlink:href="#ac"/><use transform="matrix(0.05,0,0,0.05,44,0)" xlink:href="#an"/><use transform="matrix(0.05,0,0,0.05,47.95,0)" xlink:href="#U"/><use transform="matrix(0.05,0,0,0.05,57.95,0)" xlink:href="#ab"/></g><g id="D"><use transform="matrix(0.05,0,0,0.05,0,0)" xlink:href="#am"/><use transform="matrix(0.05,0,0,0.05,9,0)" xlink:href="#ag"/><use transform="matrix(0.05,0,0,0.05,12.949999999999998,0)" xlink:href="#an"/><use transform="matrix(0.05,0,0,0.05,16.9,0)" xlink:href="#T"/><use transform="matrix(0.05,0,0,0.05,26.899999999999995,0)" xlink:href="#U"/><use transform="matrix(0.05,0,0,0.05,36.9,0)" xlink:href="#ae"/><use transform="matrix(0.05,0,0,0.05,41.9,0)" xlink:href="#ab"/></g><path d="M206 0h-36l-40-164L89 0H53L-1-190h32L70-26l43-164h34l41 164 42-164h31" id="au"/><g id="E"><use transform="matrix(0.05,0,0,0.05,0,0)" xlink:href="#au"/><use transform="matrix(0.05,0,0,0.05,12.950000000000001,0)" xlink:href="#ai"/><use transform="matrix(0.05,0,0,0.05,22.950000000000003,0)" xlink:href="#af"/></g><g id="F"><use transform="matrix(0.05,0,0,0.05,0,0)" xlink:href="#ai"/><use transform="matrix(0.05,0,0,0.05,10,0)" xlink:href="#ac"/><use transform="matrix(0.05,0,0,0.05,20,0)" xlink:href="#ah"/><use transform="matrix(0.05,0,0,0.05,29,0)" xlink:href="#T"/></g><path d="M101-234c-31-9-42 10-38 44h38v23H63V0H32v-167H5v-23h27c-7-52 17-82 69-68v24" id="av"/><g id="G"><use transform="matrix(0.05,0,0,0.05,0,0)" xlink:href="#av"/><use transform="matrix(0.05,0,0,0.05,5,0)" xlink:href="#an"/><use transform="matrix(0.05,0,0,0.05,8.95,0)" xlink:href="#ag"/><use transform="matrix(0.05,0,0,0.05,12.899999999999999,0)" xlink:href="#T"/></g></defs></g></svg>