<svg xmlns="http://www.w3.org/2000/svg" xmlns:xlink="http://www.w3.org/1999/xlink" xmlns:lucid="lucid" width="1182" height="3442"><g transform="translate(136.0666666666666 1389.5333333333333)" lucid:page-tab-id="2bIpWRciS51s"><path d="M-500-1500h2000v4000H-500z" fill="#fff"/><path d="M279.93-1087.78a6 6 0 0 1 6-6h353a6 6 0 0 1 6 6v3113.25a6 6 0 0 1-6 6h-353a6 6 0 0 1-6-6z" stroke="#282c33" stroke-width="2" fill-opacity="0"/><path d="M279.93-1137.38a6 6 0 0 1 6-6h49.85a6 6 0 0 1 6 6v25.6a6 6 0 0 1-6 6h-49.85a6 6 0 0 1-6-6z" fill="#282c33"/><use xlink:href="#a" transform="matrix(1,0,0,1,287.9333333333334,-1132.9781905209493) translate(0 14.6)"/><path d="M695-1087.78a6 6 0 0 1 6-6h317.93a6 6 0 0 1 6 6V-74.53a6 6 0 0 1-6 6H701a6 6 0 0 1-6-6z" stroke="#282c33" stroke-width="2" fill-opacity="0"/><path d="M695-1137.38a6 6 0 0 1 6-6h64.2a6 6 0 0 1 6 6v25.6a6 6 0 0 1-6 6H701a6 6 0 0 1-6-6z" fill="#282c33"/><use xlink:href="#b" transform="matrix(1,0,0,1,703.0055477576561,-1132.9781905209493) translate(0 14.6)"/><path d="M-115.07-1082.53a6 6 0 0 1 6-6h328a6 6 0 0 1 6 6v2368a6 6 0 0 1-6 6h-328a6 6 0 0 1-6-6z" stroke="#282c33" stroke-width="2" fill-opacity="0"/><path d="M-115.07-1132.13a6 6 0 0 1 6-6h76.85a6 6 0 0 1 6 6v25.6a6 6 0 0 1-6 6h-76.85a6 6 0 0 1-6-6z" fill="#282c33"/><use xlink:href="#c" transform="matrix(1,0,0,1,-107.0666666666666,-1127.7333333333331) translate(0 14.6)"/><path d="M399.93-912.53a6 6 0 0 1 6-6h148a6 6 0 0 1 6 6v108a6 6 0 0 1-6 6h-148a6 6 0 0 1-6-6z" stroke="#282c33" stroke-width="2" fill="#dedeff"/><use xlink:href="#d" transform="matrix(1,0,0,1,411.9333333333334,-906.5333333333333) translate(16.074999999999996 41.4)"/><use xlink:href="#e" transform="matrix(1,0,0,1,411.9333333333334,-906.5333333333333) translate(63.074999999999996 41.4)"/><use xlink:href="#f" transform="matrix(1,0,0,1,411.9333333333334,-906.5333333333333) translate(31.525 63)"/><path d="M561.43-858.53h196.2" stroke="#3a414a" fill="none"/><path d="M561.45-858.06h-.52v-.95h.52z" stroke="#3a414a" stroke-width=".05" fill="#3a414a"/><path d="M772.4-858.53l-14.28 4.63v-9.27z" stroke="#3a414a" fill="#3a414a"/><path d="M775-912.53a6 6 0 0 1 6-6h148a6 6 0 0 1 6 6v108a6 6 0 0 1-6 6H781a6 6 0 0 1-6-6z" stroke="#282c33" stroke-width="2" fill="#dedeff"/><use xlink:href="#g" transform="matrix(1,0,0,1,787.0055477576561,-906.5333333333333) translate(4.624999999999993 41.4)"/><use xlink:href="#e" transform="matrix(1,0,0,1,787.0055477576561,-906.5333333333333) translate(74.525 41.4)"/><use xlink:href="#f" transform="matrix(1,0,0,1,787.0055477576561,-906.5333333333333) translate(31.525 63)"/><path d="M775-422.53a6 6 0 0 1 6-6h148a6 6 0 0 1 6 6v108a6 6 0 0 1-6 6H781a6 6 0 0 1-6-6z" stroke="#282c33" stroke-width="2" fill="#dedeff"/><use xlink:href="#d" transform="matrix(1,0,0,1,787.0055477576561,-416.5333333333333) translate(23.549999999999997 41.4)"/><use xlink:href="#h" transform="matrix(1,0,0,1,787.0055477576561,-416.5333333333333) translate(70.55 41.4)"/><use xlink:href="#i" transform="matrix(1,0,0,1,787.0055477576561,-416.5333333333333) translate(97.45 41.4)"/><use xlink:href="#j" transform="matrix(1,0,0,1,787.0055477576561,-416.5333333333333) translate(45.525 63)"/><path d="M389.93-422.53a6 6 0 0 1 6-6h168a6 6 0 0 1 6 6v108a6 6 0 0 1-6 6h-168a6 6 0 0 1-6-6z" stroke="#282c33" stroke-width="2" fill="#dedeff"/><use xlink:href="#g" transform="matrix(1,0,0,1,401.9333333333334,-416.5333333333333) translate(22.099999999999994 41.4)"/><use xlink:href="#h" transform="matrix(1,0,0,1,401.9333333333334,-416.5333333333333) translate(92 41.4)"/><use xlink:href="#i" transform="matrix(1,0,0,1,401.9333333333334,-416.5333333333333) translate(118.9 41.4)"/><use xlink:href="#j" transform="matrix(1,0,0,1,401.9333333333334,-416.5333333333333) translate(55.525 63)"/><path d="M773.5-368.53H587.33" stroke="#3a414a" fill="none"/><path d="M774-368.06h-.5v-.95h.5z" stroke="#3a414a" stroke-width=".05" fill="#3a414a"/><path d="M572.55-368.53l14.27-4.64v9.27z" stroke="#3a414a" fill="#3a414a"/><path d="M855-797.03v13.1" stroke="#3a414a" fill="none"/><path d="M855.48-797.02h-.95v-.5h.95z" stroke="#3a414a" stroke-width=".05" fill="#3a414a"/><path d="M855-769.15l-4.63-14.27h9.27z" stroke="#3a414a" fill="#3a414a"/><path d="M850.2-764.93a8 8 0 0 1 9.6 0l70.4 52.8a4.5 4.5 0 0 1 0 7.2l-70.4 52.8a8 8 0 0 1-9.6 0l-70.4-52.8a4.5 4.5 0 0 1 0-7.2z" stroke="#282c33" stroke-width="2" fill="#dedeff"/><use xlink:href="#k" transform="matrix(1,0,0,1,787.0055477576561,-756.5333333333333) translate(37.53 41.4)"/><use xlink:href="#l" transform="matrix(1,0,0,1,787.0055477576561,-756.5333333333333) translate(89.53 41.4)"/><use xlink:href="#m" transform="matrix(1,0,0,1,787.0055477576561,-756.5333333333333) translate(24.554999999999996 63)"/><use xlink:href="#n" transform="matrix(1,0,0,1,787.0055477576561,-756.5333333333333) translate(74.505 63)"/><path d="M976.48-374.5l-.08.98-.24 1-.38.93-.53.87-.66.78-.8.66-.85.54-.94.4-.98.22-1 .08H952.4v-.95H970l.87-.08.84-.2.8-.33.75-.46.66-.57.57-.66.46-.73.33-.8.2-.84.07-.88v-154.8h.95zm-5.46-334.43l1 .24.93.4.86.53.8.66.64.76.54.87.38.94.24.98.08 1v151.85h-.95v-151.8l-.07-.9-.2-.84-.33-.8-.46-.74-.56-.66-.65-.56-.74-.46-.8-.33-.83-.2-.88-.06h-36.5v-.95h36.52z" stroke="#3a414a" stroke-width=".05" fill="#3a414a"/><path d="M933.52-708.06h-.55l.04-.47-.03-.48h.55z" fill="#3a414a"/><path stroke="#3a414a" stroke-width=".05" fill="#3a414a"/><path d="M951.9-363.9l-14.28-4.63 14.27-4.64z" fill="#3a414a"/><path d="M952.36-363.24l-16.27-5.3 16.26-5.28zm-13.2-5.3l12.25 4v-7.97z" stroke="#3a414a" stroke-width=".05" fill="#3a414a"/><use xlink:href="#o" transform="matrix(1,0,0,1,960.6968557823478,-550.6978385328688) translate(0 14.222222222222223)"/><path d="M855.48-635.2h-.95v-13.83h.95z" stroke="#3a414a" stroke-width=".05" fill="#3a414a"/><path d="M855-649.53l.48-.03v.54h-.95v-.54z" fill="#3a414a"/><path stroke="#3a414a" stroke-width=".05" fill="#3a414a"/><path d="M855-601.15l-4.13-12.72h8.27z" fill="#3a414a"/><path d="M855-599.6l-4.63-14.27h1L855-602.7l3.64-11.17h1z" stroke="#3a414a" stroke-width=".05" fill="#3a414a"/><use xlink:href="#p" transform="matrix(1,0,0,1,843.2030786218537,-635.1989481547934) translate(0 14.222222222222223)"/><path d="M775-592.53a6 6 0 0 1 6-6h148a6 6 0 0 1 6 6v108a6 6 0 0 1-6 6H781a6 6 0 0 1-6-6z" stroke="#282c33" stroke-width="2" fill="#dedeff"/><use xlink:href="#d" transform="matrix(1,0,0,1,787.0055477576561,-586.5333333333333) translate(6.024999999999999 41.4)"/><use xlink:href="#q" transform="matrix(1,0,0,1,787.0055477576561,-586.5333333333333) translate(53.025 41.4)"/><use xlink:href="#r" transform="matrix(1,0,0,1,787.0055477576561,-586.5333333333333) translate(25.074999999999996 63)"/><path d="M773.5-538.53H577.33" stroke="#3a414a" fill="none"/><path d="M774-538.06h-.5v-.95h.5z" stroke="#3a414a" stroke-width=".05" fill="#3a414a"/><path d="M562.55-538.53l14.27-4.64v9.27z" stroke="#3a414a" fill="#3a414a"/><path d="M399.93-592.53a6 6 0 0 1 6-6h148a6 6 0 0 1 6 6v108a6 6 0 0 1-6 6h-148a6 6 0 0 1-6-6z" stroke="#282c33" stroke-width="2" fill="#dedeff"/><use xlink:href="#s" transform="matrix(1,0,0,1,411.9333333333334,-586.5333333333338) translate(35.55 29.4)"/><use xlink:href="#q" transform="matrix(1,0,0,1,411.9333333333334,-586.5333333333338) translate(29.525 51)"/><use xlink:href="#r" transform="matrix(1,0,0,1,411.9333333333334,-586.5333333333338) translate(25.074999999999996 72.60000000000001)"/><path d="M519.93 1911.47c22.1 0 40 17.9 40 40s-17.9 40-40 40h-80c-22.1 0-40-17.9-40-40s17.9-40 40-40z" stroke="#282c33" stroke-width="2" fill="#dedeff"/><use xlink:href="#t" transform="matrix(1,0,0,1,404.9333333333334,1916.4666666666667) translate(59 38.4625)"/><path d="M398.43-538.53h-33.5a6 6 0 0 0-6 6v2478a6 6 0 0 0 6 6h17.62" stroke="#3a414a" fill="none"/><path d="M398.93-538.06h-.5v-.95h.5z" stroke="#3a414a" stroke-width=".05" fill="#3a414a"/><path d="M397.3 1951.47l-14.25 4.63v-9.27z" stroke="#3a414a" fill="#3a414a"/><path d="M399.93 87.47a6 6 0 0 1 6-6h148a6 6 0 0 1 6 6v108a6 6 0 0 1-6 6h-148a6 6 0 0 1-6-6z" stroke="#282c33" stroke-width="2" fill="#dedeff"/><use xlink:href="#u" transform="matrix(1,0,0,1,411.9333333333334,93.4666666666667) translate(31.549999999999997 29.4)"/><use xlink:href="#v" transform="matrix(1,0,0,1,411.9333333333334,93.4666666666667) translate(6.074999999999996 51)"/><use xlink:href="#w" transform="matrix(1,0,0,1,411.9333333333334,93.4666666666667) translate(98.025 51)"/><use xlink:href="#x" transform="matrix(1,0,0,1,411.9333333333334,93.4666666666667) translate(22.549999999999997 72.60000000000001)"/><use xlink:href="#j" transform="matrix(1,0,0,1,411.9333333333334,93.4666666666667) translate(68.5 72.60000000000001)"/><path d="M85.93-1051.97c22.1 0 40 17.9 40 40s-17.9 40-40 40h-80c-22.1 0-40-17.9-40-40s17.9-40 40-40z" stroke="#282c33" stroke-width="2" fill="#dedeff"/><use xlink:href="#y" transform="matrix(1,0,0,1,-29.066716666666252,-1046.973416796608) translate(56.025 38.4625)"/><path d="M90.93 571.47c22.1 0 40 17.9 40 40s-17.9 40-40 40h-80c-22.1 0-40-17.9-40-40s17.9-40 40-40z" stroke="#282c33" stroke-width="2" fill="#dedeff"/><use xlink:href="#z" transform="matrix(1,0,0,1,-24.066716666666252,576.4666666666667) translate(32.62499999999999 38.4625)"/><path d="M-29.07 257.47a6 6 0 0 1 6-6h148a6 6 0 0 1 6 6v108a6 6 0 0 1-6 6h-148a6 6 0 0 1-6-6z" stroke="#282c33" stroke-width="2" fill="#dedeff"/><use xlink:href="#s" transform="matrix(1,0,0,1,-17.066716666666252,263.4666666666667) translate(35.55 41.4)"/><use xlink:href="#f" transform="matrix(1,0,0,1,-17.066716666666252,263.4666666666667) translate(31.525 63)"/><path d="M479.93 202.97v31.1" stroke="#3a414a" fill="none"/><path d="M480.4 202.98h-.94v-.5h.95z" stroke="#3a414a" stroke-width=".05" fill="#3a414a"/><path d="M479.93 248.85l-4.63-14.27h9.27z" stroke="#3a414a" fill="#3a414a"/><path d="M399.93 257.47a6 6 0 0 1 6-6h148a6 6 0 0 1 6 6v108a6 6 0 0 1-6 6h-148a6 6 0 0 1-6-6z" stroke="#282c33" stroke-width="2" fill="#dedeff"/><use xlink:href="#d" transform="matrix(1,0,0,1,411.9333333333334,263.4666666666667) translate(8.024999999999999 50.4)"/><use xlink:href="#f" transform="matrix(1,0,0,1,411.9333333333334,263.4666666666667) translate(55.025 50.4)"/><path d="M398.43 311.47h-250.1" stroke="#3a414a" fill="none"/><path d="M398.93 311.94h-.5V311h.5z" stroke="#3a414a" stroke-width=".05" fill="#3a414a"/><path d="M133.55 311.47l14.27-4.64v9.27z" stroke="#3a414a" fill="#3a414a"/><path d="M50.93 372.97v41.1" stroke="#3a414a" fill="none"/><path d="M51.4 372.98h-.94v-.5h.95z" stroke="#3a414a" stroke-width=".05" fill="#3a414a"/><path d="M50.93 428.85l-4.63-14.27h9.27z" stroke="#3a414a" fill="#3a414a"/><path d="M-29.07 437.47a6 6 0 0 1 6-6h148a6 6 0 0 1 6 6v108a6 6 0 0 1-6 6h-148a6 6 0 0 1-6-6z" stroke="#282c33" stroke-width="2" fill="#dedeff"/><use xlink:href="#A" transform="matrix(1,0,0,1,-17.066716666666252,443.4666666666667) translate(0.9629629629629619 41.22222222222222)"/><use xlink:href="#B" transform="matrix(1,0,0,1,-17.066716666666252,443.4666666666667) translate(76.96296296296296 41.22222222222222)"/><use xlink:href="#C" transform="matrix(1,0,0,1,-17.066716666666252,443.4666666666667) translate(113.40740740740742 41.22222222222222)"/><use xlink:href="#D" transform="matrix(1,0,0,1,-17.066716666666252,443.4666666666667) translate(18.691358024691354 62.55555555555556)"/><use xlink:href="#E" transform="matrix(1,0,0,1,-17.066716666666252,443.4666666666667) translate(38.44444444444444 62.55555555555556)"/><use xlink:href="#F" transform="matrix(1,0,0,1,-17.066716666666252,443.4666666666667) translate(66 62.55555555555556)"/><path d="M132.43 491.47h250.12" stroke="#3a414a" fill="none"/><path d="M132.45 491.94h-.52V491h.52z" stroke="#3a414a" stroke-width=".05" fill="#3a414a"/><path d="M397.3 491.47l-14.25 4.63v-9.27z" stroke="#3a414a" fill="#3a414a"/><path d="M399.93 437.47a6 6 0 0 1 6-6h148a6 6 0 0 1 6 6v108a6 6 0 0 1-6 6h-148a6 6 0 0 1-6-6z" stroke="#282c33" stroke-width="2" fill="#dedeff"/><use xlink:href="#G" transform="matrix(1,0,0,1,411.9333333333334,443.4666666666667) translate(12.790123456790127 41.22222222222222)"/><use xlink:href="#H" transform="matrix(1,0,0,1,411.9333333333334,443.4666666666667) translate(81.82716049382717 41.22222222222222)"/><use xlink:href="#I" transform="matrix(1,0,0,1,411.9333333333334,443.4666666666667) translate(108.39506172839506 41.22222222222222)"/><use xlink:href="#E" transform="matrix(1,0,0,1,411.9333333333334,443.4666666666667) translate(28.5679012345679 62.55555555555556)"/><use xlink:href="#F" transform="matrix(1,0,0,1,411.9333333333334,443.4666666666667) translate(56.123456790123456 62.55555555555556)"/><path d="M479.93 552.97v21.1" stroke="#3a414a" fill="none"/><path d="M480.4 552.98h-.94v-.5h.95z" stroke="#3a414a" stroke-width=".05" fill="#3a414a"/><path d="M479.93 588.85l-4.63-14.27h9.27z" stroke="#3a414a" fill="#3a414a"/><path d="M394.93 597.47a6 6 0 0 1 6-6h158a6 6 0 0 1 6 6v108a6 6 0 0 1-6 6h-158a6 6 0 0 1-6-6z" stroke="#282c33" stroke-width="2" fill="#dedeff"/><use xlink:href="#J" transform="matrix(1,0,0,1,406.9333333333334,603.4666666666667) translate(6.975308641975303 29.22222222222222)"/><use xlink:href="#K" transform="matrix(1,0,0,1,406.9333333333334,603.4666666666667) translate(93.69135802469135 29.22222222222222)"/><use xlink:href="#L" transform="matrix(1,0,0,1,406.9333333333334,603.4666666666667) translate(37.46913580246913 50.55555555555556)"/><use xlink:href="#M" transform="matrix(1,0,0,1,406.9333333333334,603.4666666666667) translate(93.71604938271605 50.55555555555556)"/><use xlink:href="#N" transform="matrix(1,0,0,1,406.9333333333334,603.4666666666667) translate(35.02469135802469 71.8888888888889)"/><path d="M469.76 1054.5a10.2 10.2 0 0 1 10.35 0l74.66 43.92a3.53 3.53 0 0 1 0 6.1l-74.65 43.9a10.2 10.2 0 0 1-10.34 0l-74.65-43.9a3.53 3.53 0 0 1 0-6.1z" stroke="#282c33" stroke-width="2" fill="#dedeff"/><use xlink:href="#O" transform="matrix(1,0,0,1,401.9333333333334,1063.4666666666667) translate(47.8445061728395 30.84722222222222)"/><use xlink:href="#P" transform="matrix(1,0,0,1,401.9333333333334,1063.4666666666667) translate(39.91858024691358 52.18055555555556)"/><path d="M394.93 777.47a6 6 0 0 1 6-6h158a6 6 0 0 1 6 6v88a6 6 0 0 1-6 6h-158a6 6 0 0 1-6-6z" stroke="#282c33" stroke-width="2" fill="#dedeff"/><use xlink:href="#Q" transform="matrix(1,0,0,1,406.9333333333334,783.4666666666667) translate(10.308641975308632 30.84722222222222)"/><use xlink:href="#R" transform="matrix(1,0,0,1,406.9333333333334,783.4666666666667) translate(56.72839506172839 30.84722222222222)"/><use xlink:href="#M" transform="matrix(1,0,0,1,406.9333333333334,783.4666666666667) translate(120.87654320987654 30.84722222222222)"/><use xlink:href="#S" transform="matrix(1,0,0,1,406.9333333333334,783.4666666666667) translate(6.901234567901241 52.18055555555556)"/><use xlink:href="#F" transform="matrix(1,0,0,1,406.9333333333334,783.4666666666667) translate(87.79012345679013 52.18055555555556)"/><path d="M393.43 821.47h-245.1" stroke="#3a414a" fill="none"/><path d="M393.93 821.94h-.5V821h.5z" stroke="#3a414a" stroke-width=".05" fill="#3a414a"/><path d="M133.55 821.47l14.27-4.64v9.27z" stroke="#3a414a" fill="#3a414a"/><path d="M-39.07 777.47a6 6 0 0 1 6-6h158a6 6 0 0 1 6 6v88a6 6 0 0 1-6 6h-158a6 6 0 0 1-6-6z" stroke="#282c33" stroke-width="2" fill="#dedeff"/><use xlink:href="#G" transform="matrix(1,0,0,1,-27.066716666666252,783.4666666666667) translate(8.876543209876544 42.72222222222222)"/><use xlink:href="#T" transform="matrix(1,0,0,1,-27.066716666666252,783.4666666666667) translate(77.91358024691358 42.72222222222222)"/><path d="M45.93 872.97v21.1" stroke="#3a414a" fill="none"/><path d="M46.4 872.98h-.94v-.5h.95z" stroke="#3a414a" stroke-width=".05" fill="#3a414a"/><path d="M45.93 908.85l-4.63-14.27h9.27z" stroke="#3a414a" fill="#3a414a"/><path d="M-39.07 917.47a6 6 0 0 1 6-6h158a6 6 0 0 1 6 6v88a6 6 0 0 1-6 6h-158a6 6 0 0 1-6-6z" stroke="#282c33" stroke-width="2" fill="#dedeff"/><use xlink:href="#Q" transform="matrix(1,0,0,1,-27.066716666666252,923.4666666666667) translate(24.135802469135797 42.72222222222222)"/><use xlink:href="#F" transform="matrix(1,0,0,1,-27.066716666666252,923.4666666666667) translate(70.55555555555556 42.72222222222222)"/><path d="M132.43 961.47h240.12" stroke="#3a414a" fill="none"/><path d="M132.45 961.94h-.52V961h.52z" stroke="#3a414a" stroke-width=".05" fill="#3a414a"/><path d="M387.3 961.47l-14.25 4.63v-9.27z" stroke="#3a414a" fill="#3a414a"/><path d="M389.93 917.47a6 6 0 0 1 6-6h158a6 6 0 0 1 6 6v88a6 6 0 0 1-6 6h-158a6 6 0 0 1-6-6z" stroke="#282c33" stroke-width="2" fill="#dedeff"/><use xlink:href="#G" transform="matrix(1,0,0,1,401.9333333333334,923.4666666666667) translate(12.827160493827158 42.72222222222222)"/><use xlink:href="#F" transform="matrix(1,0,0,1,401.9333333333334,923.4666666666667) translate(81.8641975308642 42.72222222222222)"/><path d="M389.93 1231.94a6 6 0 0 1 6-6h158a6 6 0 0 1 6 6v88a6 6 0 0 1-6 6h-158a6 6 0 0 1-6-6z" stroke="#282c33" stroke-width="2" fill="#dedeff"/><use xlink:href="#U" transform="matrix(1,0,0,1,401.9333333333334,1237.9451748162578) translate(19.740740740740733 42.72222222222222)"/><use xlink:href="#F" transform="matrix(1,0,0,1,401.9333333333334,1237.9451748162578) translate(74.9506172839506 42.72222222222222)"/><path d="M476.5 1327.44l1.4 46.65" stroke="#3a414a" fill="none"/><path d="M476.96 1327.44l-.94.03-.02-.53h.95z" stroke="#3a414a" stroke-width=".05" fill="#3a414a"/><path d="M478.34 1388.85l-5.06-14.12 9.27-.28z" stroke="#3a414a" fill="#3a414a"/><path d="M394.93 1397.47a6 6 0 0 1 6-6h158a6 6 0 0 1 6 6v88a6 6 0 0 1-6 6h-158a6 6 0 0 1-6-6z" stroke="#282c33" stroke-width="2" fill="#dedeff"/><use xlink:href="#V" transform="matrix(1,0,0,1,406.9333333333334,1403.4666666666667) translate(0.9506172839506064 42.72222222222222)"/><use xlink:href="#W" transform="matrix(1,0,0,1,406.9333333333334,1403.4666666666667) translate(46.382716049382715 42.72222222222222)"/><use xlink:href="#X" transform="matrix(1,0,0,1,406.9333333333334,1403.4666666666667) translate(76.01234567901236 42.72222222222222)"/><path d="M855-307.03v61.1" stroke="#3a414a" fill="none"/><path d="M855.48-307.02h-.95v-.5h.95z" stroke="#3a414a" stroke-width=".05" fill="#3a414a"/><path d="M855-231.15l-4.63-14.27h9.27z" stroke="#3a414a" fill="#3a414a"/><path d="M775-222.53a6 6 0 0 1 6-6h148a6 6 0 0 1 6 6v108a6 6 0 0 1-6 6H781a6 6 0 0 1-6-6z" stroke="#282c33" stroke-width="2" fill="#dedeff"/><use xlink:href="#Y" transform="matrix(1,0,0,1,787.0055477576561,-216.5333333333333) translate(0.5750000000000028 29.4)"/><use xlink:href="#Z" transform="matrix(1,0,0,1,787.0055477576561,-216.5333333333333) translate(63.525000000000006 29.4)"/><use xlink:href="#h" transform="matrix(1,0,0,1,787.0055477576561,-216.5333333333333) translate(93.525 29.4)"/><use xlink:href="#i" transform="matrix(1,0,0,1,787.0055477576561,-216.5333333333333) translate(120.425 29.4)"/><use xlink:href="#m" transform="matrix(1,0,0,1,787.0055477576561,-216.5333333333333) translate(6.024999999999999 51)"/><use xlink:href="#aa" transform="matrix(1,0,0,1,787.0055477576561,-216.5333333333333) translate(55.975 51)"/><use xlink:href="#ab" transform="matrix(1,0,0,1,787.0055477576561,-216.5333333333333) translate(90.975 51)"/><use xlink:href="#aa" transform="matrix(1,0,0,1,787.0055477576561,-216.5333333333333) translate(39.05 72.60000000000001)"/><use xlink:href="#ac" transform="matrix(1,0,0,1,787.0055477576561,-216.5333333333333) translate(74.05 72.60000000000001)"/><path d="M474.8 1754.6a9.82 9.82 0 0 1 10.25 0l99.76 60.98a3.67 3.67 0 0 1 0 6.26l-99.75 60.98a9.82 9.82 0 0 1-10.24 0l-99.75-60.98a3.67 3.67 0 0 1 0-6.26z" stroke="#282c33" stroke-width="2" fill="#dedeff"/><use xlink:href="#ad" transform="matrix(1,0,0,1,374.9333333333334,1756.4666666666667) translate(79.53 26.11875)"/><use xlink:href="#ae" transform="matrix(1,0,0,1,374.9333333333334,1756.4666666666667) translate(62.080000000000005 47.71875)"/><use xlink:href="#af" transform="matrix(1,0,0,1,374.9333333333334,1756.4666666666667) translate(76.03 47.71875)"/><use xlink:href="#ag" transform="matrix(1,0,0,1,374.9333333333334,1756.4666666666667) translate(121.98 47.71875)"/><use xlink:href="#ah" transform="matrix(1,0,0,1,374.9333333333334,1756.4666666666667) translate(27.129999999999992 69.31875000000001)"/><use xlink:href="#ai" transform="matrix(1,0,0,1,374.9333333333334,1756.4666666666667) translate(110.93 69.31875000000001)"/><use xlink:href="#i" transform="matrix(1,0,0,1,374.9333333333334,1756.4666666666667) translate(167.88 69.31875000000001)"/><use xlink:href="#aj" transform="matrix(1,0,0,1,374.9333333333334,1756.4666666666667) translate(56.57999999999999 90.91875000000002)"/><use xlink:href="#ak" transform="matrix(1,0,0,1,374.9333333333334,1756.4666666666667) translate(117.47999999999999 90.91875000000002)"/><path d="M479.93 712.97v41.1" stroke="#3a414a" fill="none"/><path d="M480.4 712.98h-.94v-.5h.95z" stroke="#3a414a" stroke-width=".05" fill="#3a414a"/><path d="M479.93 768.85l-4.63-14.27h9.27z" stroke="#3a414a" fill="#3a414a"/><path d="M474.93 1012.97v22.74" stroke="#3a414a" fill="none"/><path d="M475.4 1012.98h-.94v-.5h.95z" stroke="#3a414a" stroke-width=".05" fill="#3a414a"/><path d="M474.93 1050.48l-4.63-14.27h9.27z" stroke="#3a414a" fill="#3a414a"/><path d="M475.4 1208.56h-.94v-10h.95zm0-31.34h-.94v-25.9h.95z" stroke="#3a414a" stroke-width=".05" fill="#3a414a"/><path d="M474.93 1150.83l.48-.02v.55h-.94v-.54z" fill="#3a414a"/><path stroke="#3a414a" stroke-width=".05" fill="#3a414a"/><path d="M474.93 1223.33l-4.63-14.27h9.27z" fill="#3a414a"/><path d="M474.93 1224.86l-5.3-16.27h10.6zm-3.98-15.32l3.98 12.25 4-12.26z" stroke="#3a414a" stroke-width=".05" fill="#3a414a"/><use xlink:href="#o" transform="matrix(1,0,0,1,459.62469135802473,1177.2230546565454) translate(0 14.222222222222223)"/><path d="M558 1101.47h23.57a6 6 0 0 0 6-6V656.72a5.26 5.26 0 0 0-5.25-5.25" stroke="#3a414a" fill="none"/><path d="M558.02 1101.94h-.56l.05-.47-.04-.48h.56z" stroke="#3a414a" stroke-width=".05" fill="#3a414a"/><path d="M567.55 651.47l14.27-4.64v9.27z" stroke="#3a414a" fill="#3a414a"/><g><use xlink:href="#p" transform="matrix(1,0,0,1,555.969027806371,870.0131281576029) translate(0 14.222222222222223)"/></g><path d="M600.4 1812.72l-.07 1-.24 1-.4.93-.53.86-.66.8-.76.64-.87.54-.94.38-.98.24-1 .08h-5.88v-.95h5.84l.9-.07.84-.2.8-.33.74-.46.66-.56.56-.65.46-.74.33-.8.2-.83.06-.88V1225.9h.95zm-5.45-1179.68l.98.24.94.4.87.52.77.66.67.77.53.87.4.94.23 1 .08.98v565.17h-.94V639.45l-.07-.88-.2-.85-.35-.8-.45-.74-.56-.67-.66-.56-.74-.45-.8-.33-.84-.22-.88-.07h-11.6v-.94h11.63z" stroke="#3a414a" stroke-width=".05" fill="#3a414a"/><path d="M588.1 1819.18h-.58l.05-.47-.05-.47h.57z" fill="#3a414a"/><path stroke="#3a414a" stroke-width=".05" fill="#3a414a"/><path d="M581.82 638.07l-14.27-4.63 14.27-4.64z" fill="#3a414a"/><path d="M582.3 638.73l-16.3-5.3 16.3-5.28zm-13.2-5.3l12.24 4v-7.97z" stroke="#3a414a" stroke-width=".05" fill="#3a414a"/><g><use xlink:href="#o" transform="matrix(1,0,0,1,584.6246913580247,1204.5853620508205) translate(0 14.222222222222223)"/></g><path d="M620.4 1812.72l-.07 1-.24 1-.4.93-.53.86-.66.8-.76.64-.87.54-.94.38-.98.24-1 .08h-25.88v-.95h25.84l.9-.07.84-.2.8-.33.74-.46.66-.56.56-.65.46-.74.33-.8.2-.83.06-.88V977.42h.95zm-5.45-1671.65l.98.24.94.4.87.53.77.66.67.76.53.87.4.94.23.98.08 1V956.1h-.94V147.5l-.07-.9-.2-.84-.35-.8-.45-.74-.56-.66-.66-.56-.74-.46-.8-.33-.84-.2-.88-.06h-36.6V141h36.63z" stroke="#3a414a" stroke-width=".05" fill="#3a414a"/><path d="M588.1 1819.18h-.58l.05-.47-.05-.47h.57z" fill="#3a414a"/><path stroke="#3a414a" stroke-width=".05" fill="#3a414a"/><path d="M576.82 146.1l-14.27-4.63 14.27-4.64z" fill="#3a414a"/><path d="M577.3 146.76l-16.3-5.3 16.3-5.28zm-13.2-5.3l12.24 4v-7.97z" stroke="#3a414a" stroke-width=".05" fill="#3a414a"/><g><use xlink:href="#p" transform="matrix(1,0,0,1,608.1308641975312,956.0992856650768) translate(0 14.222222222222223)"/></g><path d="M479.93 1492.97v48.32" stroke="#3a414a" fill="none"/><path d="M480.4 1492.98h-.94v-.5h.95z" stroke="#3a414a" stroke-width=".05" fill="#3a414a"/><path d="M479.93 1556.06l-4.63-14.27h9.27z" stroke="#3a414a" fill="#3a414a"/><path d="M474.8 1560.12a9.82 9.82 0 0 1 10.25 0l99.76 60.98a3.67 3.67 0 0 1 0 6.26l-99.75 60.98a9.82 9.82 0 0 1-10.24 0l-99.75-60.98a3.67 3.67 0 0 1 0-6.26z" stroke="#282c33" stroke-width="2" fill="#dedeff"/><g><use xlink:href="#O" transform="matrix(1,0,0,1,381.9333333333334,1568.9881585170756) translate(72.84450617283952 21.15972222222222)"/><use xlink:href="#al" transform="matrix(1,0,0,1,381.9333333333334,1568.9881585170756) translate(39.33833333333333 42.49305555555556)"/><use xlink:href="#am" transform="matrix(1,0,0,1,381.9333333333334,1568.9881585170756) translate(53.11611111111111 42.49305555555556)"/><use xlink:href="#W" transform="matrix(1,0,0,1,381.9333333333334,1568.9881585170756) translate(75.73339506172839 42.49305555555556)"/><use xlink:href="#an" transform="matrix(1,0,0,1,381.9333333333334,1568.9881585170756) translate(105.36302469135802 42.49305555555556)"/><use xlink:href="#D" transform="matrix(1,0,0,1,381.9333333333334,1568.9881585170756) translate(32.86919753086419 63.82638888888889)"/><use xlink:href="#E" transform="matrix(1,0,0,1,381.9333333333334,1568.9881585170756) translate(52.62228395061728 63.82638888888889)"/><use xlink:href="#ao" transform="matrix(1,0,0,1,381.9333333333334,1568.9881585170756) translate(80.17783950617283 63.82638888888889)"/><use xlink:href="#ap" transform="matrix(1,0,0,1,381.9333333333334,1568.9881585170756) translate(123.63462962962963 63.82638888888889)"/><use xlink:href="#aq" transform="matrix(1,0,0,1,381.9333333333334,1568.9881585170756) translate(50.15314814814814 85.15972222222223)"/></g><path d="M340.4 1945.45l.08.88.2.84.33.8.46.74.57.67.66.57.73.45.8.32.84.2.88.07h36.6v.94h-36.63l-1-.08-1-.23-.93-.4-.87-.52-.78-.65-.66-.78-.54-.86-.4-.93-.22-1-.08-1v-133.64h.95zm31.4-320.75h-25.85l-.88.07-.84.2-.8.34-.74.46-.67.56-.56.66-.46.74-.32.8-.2.84-.07.9v160.24h-.94v-160.3l.08-1 .23-.97.4-.94.52-.88.65-.77.78-.66.86-.54.93-.4 1-.23 1-.08h25.86z" stroke="#3a414a" stroke-width=".05" fill="#3a414a"/><path d="M372.3 1624.23l.04.47h-.56v-.95h.56z" fill="#3a414a"/><path stroke="#3a414a" stroke-width=".05" fill="#3a414a"/><path d="M397.3 1951.47l-14.25 4.63v-9.27z" fill="#3a414a"/><path d="M398.85 1951.47l-16.28 5.3v-10.6zm-15.33 3.98l12.26-3.98-12.26-4z" stroke="#3a414a" stroke-width=".05" fill="#3a414a"/><g><use xlink:href="#o" transform="matrix(1,0,0,1,324.62469135802473,1790.5003774897796) translate(0 14.222222222222223)"/></g><path d="M480.4 1735.77h-.94v-3.64h.95zm0-24.97h-.94v-19.52h.95z" stroke="#3a414a" stroke-width=".05" fill="#3a414a"/><path d="M479.93 1690.78l.48-.03v.54h-.94v-.55z" fill="#3a414a"/><path stroke="#3a414a" stroke-width=".05" fill="#3a414a"/><path d="M479.93 1750.54l-4.63-14.27h9.27z" fill="#3a414a"/><path d="M479.93 1752.07l-5.3-16.27h10.6zm-3.98-15.33l3.98 12.26 4-12.26z" stroke="#3a414a" stroke-width=".05" fill="#3a414a"/><g><use xlink:href="#p" transform="matrix(1,0,0,1,468.13086419521926,1710.7999999250774) translate(0 14.222222222222223)"/></g><path d="M479.34-307.03l-.6 62.7" stroke="#3a414a" fill="none"/><path d="M479.82-307.02h-.95v-.5h.95z" stroke="#3a414a" stroke-width=".05" fill="#3a414a"/><path d="M478.6-229.57l-4.5-14.3 9.27.08z" stroke="#3a414a" fill="#3a414a"/><path d="M472.77-225.62a10.8 10.8 0 0 1 10.5 0l97.58 54.17a3.33 3.33 0 0 1 0 5.83l-97.6 54.17a10.8 10.8 0 0 1-10.48 0l-97.6-54.17a3.33 3.33 0 0 1 0-5.83z" stroke="#282c33" stroke-width="2" fill="#dedeff"/><g><use xlink:href="#k" transform="matrix(1,0,0,1,381.9333333333334,-216.5333333333333) translate(66.03 26.4)"/><use xlink:href="#l" transform="matrix(1,0,0,1,381.9333333333334,-216.5333333333333) translate(118.03 26.4)"/><use xlink:href="#af" transform="matrix(1,0,0,1,381.9333333333334,-216.5333333333333) translate(18.154999999999994 48)"/><use xlink:href="#ar" transform="matrix(1,0,0,1,381.9333333333334,-216.5333333333333) translate(64.10499999999999 48)"/><use xlink:href="#as" transform="matrix(1,0,0,1,381.9333333333334,-216.5333333333333) translate(95.05499999999999 48)"/><use xlink:href="#m" transform="matrix(1,0,0,1,381.9333333333334,-216.5333333333333) translate(49.054999999999986 69.60000000000001)"/><use xlink:href="#at" transform="matrix(1,0,0,1,381.9333333333334,-216.5333333333333) translate(99.005 69.60000000000001)"/><use xlink:href="#au" transform="matrix(1,0,0,1,381.9333333333334,-216.5333333333333) translate(117.955 69.60000000000001)"/><use xlink:href="#av" transform="matrix(1,0,0,1,381.9333333333334,-216.5333333333333) translate(85.055 91.20000000000002)"/></g><path d="M480.24 64.08h-.95l-.7-67.72h.96zm-.9-89.06h-.95l-.86-83.6h.95z" stroke="#3a414a" stroke-width=".05" fill="#3a414a"/><path d="M478-109.1h.5v.52h-.95v-.53z" fill="#3a414a"/><path stroke="#3a414a" stroke-width=".05" fill="#3a414a"/><path d="M479.92 78.85l-4.78-14.22 9.27-.1z" fill="#3a414a"/><path d="M479.93 80.4l-5.45-16.24 10.58-.1zm-4.13-15.3l4.1 12.2 3.86-12.28z" stroke="#3a414a" stroke-width=".05" fill="#3a414a"/><g><use xlink:href="#o" transform="matrix(1,0,0,1,463.66519086269045,-24.976207293789454) translate(0 14.222222222222223)"/></g><path d="M371.96-168.06h-46l-.9.07-.83.2-.8.34-.74.46-.67.56-.56.66-.46.74-.32.8-.2.84-.07.9v2107.95l.08.88.2.84.33.8.46.74.57.67.66.57.73.45.8.32.84.2.88.07h56.6v.94h-56.63l-1-.08-1-.23-.93-.4-.87-.52-.78-.65-.66-.78-.54-.86-.4-.93-.22-1-.08-1V-162.54l.08-1 .23-.98.4-.94.52-.87.65-.77.78-.67.86-.53.93-.4 1-.23 1-.08h46.03z" stroke="#3a414a" stroke-width=".05" fill="#3a414a"/><path d="M372.46-168.53l.05.47h-.55v-.95h.56z" fill="#3a414a"/><path stroke="#3a414a" stroke-width=".05" fill="#3a414a"/><path d="M397.3 1951.47l-14.25 4.63v-9.27z" fill="#3a414a"/><path d="M398.85 1951.47l-16.28 5.3v-10.6zm-15.33 3.98l12.26-3.98-12.26-4z" stroke="#3a414a" stroke-width=".05" fill="#3a414a"/><g><use xlink:href="#p" transform="matrix(1,0,0,1,327.9333333333334,894.0366517202895) translate(0 14.222222222222223)"/></g><path d="M519.93-1052.97c22.1 0 40 17.9 40 40s-17.9 40-40 40h-80c-22.1 0-40-17.9-40-40s17.9-40 40-40z" stroke="#282c33" stroke-width="2" fill="#dedeff"/><g><use xlink:href="#y" transform="matrix(1,0,0,1,404.9333333333334,-1047.9733667966082) translate(56.025 38.4625)"/></g><path d="M479.93-971.47v35.55" stroke="#3a414a" fill="none"/><path d="M480.4-971.46h-.94v-.5h.95z" stroke="#3a414a" stroke-width=".05" fill="#3a414a"/><path d="M479.93-921.15l-4.63-14.27h9.27z" stroke="#3a414a" fill="#3a414a"/><path d="M46.1-970.47l4.54 1204.55" stroke="#3a414a" fill="none"/><path d="M46.56-970.46h-.95v-.5h.96z" stroke="#3a414a" stroke-width=".05" fill="#3a414a"/><path d="M50.7 248.85L46 234.6l9.28-.03z" stroke="#3a414a" fill="#3a414a"/><path d="M899.97-1057.63c22.1 0 40 17.9 40 40s-17.9 40-40 40h-80c-22.1 0-40-17.9-40-40s17.9-40 40-40z" stroke="#282c33" stroke-width="2" fill="#dedeff"/><g><use xlink:href="#y" transform="matrix(1,0,0,1,784.9694405454948,-1052.625095673001) translate(56.025 38.4625)"/></g><path d="M858.67-976.13l-1.25 40.22" stroke="#3a414a" fill="none"/><path d="M859.15-976.1l-.95-.03v-.5h.96z" stroke="#3a414a" stroke-width=".05" fill="#3a414a"/><path d="M856.96-921.15l-4.2-14.4 9.28.28z" stroke="#3a414a" fill="#3a414a"/><path d="M-115.07-1362.53a6 6 0 0 1 6-6h1128a6 6 0 0 1 6 6v156a6 6 0 0 1-6 6h-1128a6 6 0 0 1-6-6z" stroke="#282c33" stroke-width="2" fill="#cfe4ff"/><g><use xlink:href="#aw" transform="matrix(1,0,0,1,-110.0666666666666,-1363.5333333333333) translate(323.22222222222223 86.3125)"/><use xlink:href="#ax" transform="matrix(1,0,0,1,-110.0666666666666,-1363.5333333333333) translate(418.6666666666667 86.3125)"/><use xlink:href="#ay" transform="matrix(1,0,0,1,-110.0666666666666,-1363.5333333333333) translate(443 86.3125)"/><use xlink:href="#az" transform="matrix(1,0,0,1,-110.0666666666666,-1363.5333333333333) translate(636 86.3125)"/></g><defs><path fill="#fff" d="M212-179c-10-28-35-45-73-45-59 0-87 40-87 99 0 60 29 101 89 101 43 0 62-24 78-52l27 14C228-24 195 4 139 4 59 4 22-46 18-125c-6-104 99-153 187-111 19 9 31 26 39 46" id="aA"/><path fill="#fff" d="M24 0v-261h32V0H24" id="aB"/><path fill="#fff" d="M24-231v-30h32v30H24zM24 0v-190h32V0H24" id="aC"/><path fill="#fff" d="M100-194c63 0 86 42 84 106H49c0 40 14 67 53 68 26 1 43-12 49-29l28 8c-11 28-37 45-77 45C44 4 14-33 15-96c1-61 26-98 85-98zm52 81c6-60-76-77-97-28-3 7-6 17-6 28h103" id="aD"/><path fill="#fff" d="M117-194c89-4 53 116 60 194h-32v-121c0-31-8-49-39-48C34-167 62-67 57 0H25l-1-190h30c1 10-1 24 2 32 11-22 29-35 61-36" id="aE"/><path fill="#fff" d="M59-47c-2 24 18 29 38 22v24C64 9 27 4 27-40v-127H5v-23h24l9-43h21v43h35v23H59v120" id="aF"/><g id="a"><use transform="matrix(0.05,0,0,0.05,0,0)" xlink:href="#aA"/><use transform="matrix(0.05,0,0,0.05,12.950000000000001,0)" xlink:href="#aB"/><use transform="matrix(0.05,0,0,0.05,16.900000000000002,0)" xlink:href="#aC"/><use transform="matrix(0.05,0,0,0.05,20.85,0)" xlink:href="#aD"/><use transform="matrix(0.05,0,0,0.05,30.85,0)" xlink:href="#aE"/><use transform="matrix(0.05,0,0,0.05,40.85,0)" xlink:href="#aF"/></g><path fill="#fff" d="M127-220V0H93v-220H8v-28h204v28h-85" id="aG"/><path fill="#fff" d="M114-163C36-179 61-72 57 0H25l-1-190h30c1 12-1 29 2 39 6-27 23-49 58-41v29" id="aH"/><path fill="#fff" d="M141-36C126-15 110 5 73 4 37 3 15-17 15-53c-1-64 63-63 125-63 3-35-9-54-41-54-24 1-41 7-42 31l-33-3c5-37 33-52 76-52 45 0 72 20 72 64v82c-1 20 7 32 28 27v20c-31 9-61-2-59-35zM48-53c0 20 12 33 32 33 41-3 63-29 60-74-43 2-92-5-92 41" id="aI"/><path fill="#fff" d="M96-169c-40 0-48 33-48 73s9 75 48 75c24 0 41-14 43-38l32 2c-6 37-31 61-74 61-59 0-76-41-82-99-10-93 101-131 147-64 4 7 5 14 7 22l-32 3c-4-21-16-35-41-35" id="aJ"/><path fill="#fff" d="M143 0L79-87 56-68V0H24v-261h32v163l83-92h37l-77 82L181 0h-38" id="aK"/><g id="b"><use transform="matrix(0.05,0,0,0.05,0,0)" xlink:href="#aG"/><use transform="matrix(0.05,0,0,0.05,10.3,0)" xlink:href="#aH"/><use transform="matrix(0.05,0,0,0.05,16.25,0)" xlink:href="#aI"/><use transform="matrix(0.05,0,0,0.05,26.25,0)" xlink:href="#aJ"/><use transform="matrix(0.05,0,0,0.05,35.25,0)" xlink:href="#aK"/><use transform="matrix(0.05,0,0,0.05,44.25,0)" xlink:href="#aD"/><use transform="matrix(0.05,0,0,0.05,54.25,0)" xlink:href="#aH"/></g><path fill="#fff" d="M232-93c-1 65-40 97-104 97C67 4 28-28 28-90v-158h33c8 89-33 224 67 224 102 0 64-133 71-224h33v155" id="aL"/><path fill="#fff" d="M115-194c55 1 70 41 70 98S169 2 115 4C84 4 66-9 55-30l1 105H24l-1-265h31l2 30c10-21 28-34 59-34zm-8 174c40 0 45-34 45-75s-6-73-45-74c-42 0-51 32-51 76 0 43 10 73 51 73" id="aM"/><path fill="#fff" d="M100-194c62-1 85 37 85 99 1 63-27 99-86 99S16-35 15-95c0-66 28-99 85-99zM99-20c44 1 53-31 53-75 0-43-8-75-51-75s-53 32-53 75 10 74 51 75" id="aN"/><path fill="#fff" d="M85-194c31 0 48 13 60 33l-1-100h32l1 261h-30c-2-10 0-23-3-31C134-8 116 4 85 4 32 4 16-35 15-94c0-66 23-100 70-100zm9 24c-40 0-46 34-46 75 0 40 6 74 45 74 42 0 51-32 51-76 0-42-9-74-50-73" id="aO"/><g id="c"><use transform="matrix(0.05,0,0,0.05,0,0)" xlink:href="#aL"/><use transform="matrix(0.05,0,0,0.05,12.950000000000001,0)" xlink:href="#aM"/><use transform="matrix(0.05,0,0,0.05,22.950000000000003,0)" xlink:href="#aB"/><use transform="matrix(0.05,0,0,0.05,26.900000000000002,0)" xlink:href="#aN"/><use transform="matrix(0.05,0,0,0.05,36.900000000000006,0)" xlink:href="#aI"/><use transform="matrix(0.05,0,0,0.05,46.900000000000006,0)" xlink:href="#aO"/><use transform="matrix(0.05,0,0,0.05,56.900000000000006,0)" xlink:href="#aD"/><use transform="matrix(0.05,0,0,0.05,66.9,0)" xlink:href="#aH"/></g><path d="M185-189c-5-48-123-54-124 2 14 75 158 14 163 119 3 78-121 87-175 55-17-10-28-26-33-46l33-7c5 56 141 63 141-1 0-78-155-14-162-118-5-82 145-84 179-34 5 7 8 16 11 25" id="aP"/><path d="M100-194c63 0 86 42 84 106H49c0 40 14 67 53 68 26 1 43-12 49-29l28 8c-11 28-37 45-77 45C44 4 14-33 15-96c1-61 26-98 85-98zm52 81c6-60-76-77-97-28-3 7-6 17-6 28h103" id="aQ"/><path d="M117-194c89-4 53 116 60 194h-32v-121c0-31-8-49-39-48C34-167 62-67 57 0H25l-1-190h30c1 10-1 24 2 32 11-22 29-35 61-36" id="aR"/><path d="M85-194c31 0 48 13 60 33l-1-100h32l1 261h-30c-2-10 0-23-3-31C134-8 116 4 85 4 32 4 16-35 15-94c0-66 23-100 70-100zm9 24c-40 0-46 34-46 75 0 40 6 74 45 74 42 0 51-32 51-76 0-42-9-74-50-73" id="aS"/><g id="d"><use transform="matrix(0.05,0,0,0.05,0,0)" xlink:href="#aP"/><use transform="matrix(0.05,0,0,0.05,12,0)" xlink:href="#aQ"/><use transform="matrix(0.05,0,0,0.05,22,0)" xlink:href="#aR"/><use transform="matrix(0.05,0,0,0.05,32,0)" xlink:href="#aS"/></g><path d="M30-248c118-7 216 8 213 122C240-48 200 0 122 0H30v-248zM63-27c89 8 146-16 146-99s-60-101-146-95v194" id="aT"/><path d="M140-251c81 0 123 46 123 126C263-46 219 4 140 4 59 4 17-45 17-125s42-126 123-126zm0 227c63 0 89-41 89-101s-29-99-89-99c-61 0-89 39-89 99S79-25 140-24" id="aU"/><path d="M266 0h-40l-56-210L115 0H75L2-248h35L96-30l15-64 43-154h32l59 218 59-218h35" id="aV"/><path d="M190 0L58-211 59 0H30v-248h39L202-35l-2-213h31V0h-41" id="aW"/><g id="e"><use transform="matrix(0.05,0,0,0.05,0,0)" xlink:href="#aT"/><use transform="matrix(0.05,0,0,0.05,12.950000000000001,0)" xlink:href="#aU"/><use transform="matrix(0.05,0,0,0.05,26.950000000000003,0)" xlink:href="#aV"/><use transform="matrix(0.05,0,0,0.05,43.900000000000006,0)" xlink:href="#aW"/></g><path d="M210-169c-67 3-38 105-44 169h-31v-121c0-29-5-50-35-48C34-165 62-65 56 0H25l-1-190h30c1 10-1 24 2 32 10-44 99-50 107 0 11-21 27-35 58-36 85-2 47 119 55 194h-31v-121c0-29-5-49-35-48" id="aX"/><path d="M135-143c-3-34-86-38-87 0 15 53 115 12 119 90S17 21 10-45l28-5c4 36 97 45 98 0-10-56-113-15-118-90-4-57 82-63 122-42 12 7 21 19 24 35" id="aY"/><path d="M141-36C126-15 110 5 73 4 37 3 15-17 15-53c-1-64 63-63 125-63 3-35-9-54-41-54-24 1-41 7-42 31l-33-3c5-37 33-52 76-52 45 0 72 20 72 64v82c-1 20 7 32 28 27v20c-31 9-61-2-59-35zM48-53c0 20 12 33 32 33 41-3 63-29 60-74-43 2-92-5-92 41" id="aZ"/><path d="M177-190C167-65 218 103 67 71c-23-6-38-20-44-43l32-5c15 47 100 32 89-28v-30C133-14 115 1 83 1 29 1 15-40 15-95c0-56 16-97 71-98 29-1 48 16 59 35 1-10 0-23 2-32h30zM94-22c36 0 50-32 50-73 0-42-14-75-50-75-39 0-46 34-46 75s6 73 46 73" id="ba"/><g id="f"><use transform="matrix(0.05,0,0,0.05,0,0)" xlink:href="#aX"/><use transform="matrix(0.05,0,0,0.05,14.950000000000001,0)" xlink:href="#aQ"/><use transform="matrix(0.05,0,0,0.05,24.950000000000003,0)" xlink:href="#aY"/><use transform="matrix(0.05,0,0,0.05,33.95,0)" xlink:href="#aY"/><use transform="matrix(0.05,0,0,0.05,42.95,0)" xlink:href="#aZ"/><use transform="matrix(0.05,0,0,0.05,52.95,0)" xlink:href="#ba"/><use transform="matrix(0.05,0,0,0.05,62.95,0)" xlink:href="#aQ"/></g><path d="M233-177c-1 41-23 64-60 70L243 0h-38l-65-103H63V0H30v-248c88 3 205-21 203 71zM63-129c60-2 137 13 137-47 0-61-80-42-137-45v92" id="bb"/><path d="M96-169c-40 0-48 33-48 73s9 75 48 75c24 0 41-14 43-38l32 2c-6 37-31 61-74 61-59 0-76-41-82-99-10-93 101-131 147-64 4 7 5 14 7 22l-32 3c-4-21-16-35-41-35" id="bc"/><path d="M24-231v-30h32v30H24zM24 0v-190h32V0H24" id="bd"/><path d="M108 0H70L1-190h34L89-25l56-165h34" id="be"/><g id="g"><use transform="matrix(0.05,0,0,0.05,0,0)" xlink:href="#bb"/><use transform="matrix(0.05,0,0,0.05,12.950000000000001,0)" xlink:href="#aQ"/><use transform="matrix(0.05,0,0,0.05,22.950000000000003,0)" xlink:href="#bc"/><use transform="matrix(0.05,0,0,0.05,31.950000000000003,0)" xlink:href="#aQ"/><use transform="matrix(0.05,0,0,0.05,41.95,0)" xlink:href="#bd"/><use transform="matrix(0.05,0,0,0.05,45.900000000000006,0)" xlink:href="#be"/><use transform="matrix(0.05,0,0,0.05,54.900000000000006,0)" xlink:href="#aQ"/></g><path d="M24 0v-261h32V0H24" id="bf"/><path d="M59-47c-2 24 18 29 38 22v24C64 9 27 4 27-40v-127H5v-23h24l9-43h21v43h35v23H59v120" id="bg"/><g id="h"><use transform="matrix(0.05,0,0,0.05,0,0)" xlink:href="#bf"/><use transform="matrix(0.05,0,0,0.05,3.95,0)" xlink:href="#bd"/><use transform="matrix(0.05,0,0,0.05,7.9,0)" xlink:href="#aY"/><use transform="matrix(0.05,0,0,0.05,16.9,0)" xlink:href="#bg"/></g><path d="M100-194c62-1 85 37 85 99 1 63-27 99-86 99S16-35 15-95c0-66 28-99 85-99zM99-20c44 1 53-31 53-75 0-43-8-75-51-75s-53 32-53 75 10 74 51 75" id="bh"/><path d="M101-234c-31-9-42 10-38 44h38v23H63V0H32v-167H5v-23h27c-7-52 17-82 69-68v24" id="bi"/><g id="i"><use transform="matrix(0.05,0,0,0.05,0,0)" xlink:href="#bh"/><use transform="matrix(0.05,0,0,0.05,10,0)" xlink:href="#bi"/></g><path d="M115-194c55 1 70 41 70 98S169 2 115 4C84 4 66-9 55-30l1 105H24l-1-265h31l2 30c10-21 28-34 59-34zm-8 174c40 0 45-34 45-75s-6-73-45-74c-42 0-51 32-51 76 0 43 10 73 51 73" id="bj"/><path d="M114-163C36-179 61-72 57 0H25l-1-190h30c1 12-1 29 2 39 6-27 23-49 58-41v29" id="bk"/><g id="j"><use transform="matrix(0.05,0,0,0.05,0,0)" xlink:href="#bj"/><use transform="matrix(0.05,0,0,0.05,10,0)" xlink:href="#aQ"/><use transform="matrix(0.05,0,0,0.05,20,0)" xlink:href="#aQ"/><use transform="matrix(0.05,0,0,0.05,30,0)" xlink:href="#bk"/><use transform="matrix(0.05,0,0,0.05,35.95,0)" xlink:href="#aY"/></g><path d="M106-169C34-169 62-67 57 0H25v-261h32l-1 103c12-21 28-36 61-36 89 0 53 116 60 194h-32v-121c2-32-8-49-39-48" id="bl"/><path d="M143 0L79-87 56-68V0H24v-261h32v163l83-92h37l-77 82L181 0h-38" id="bm"/><g id="k"><use transform="matrix(0.05,0,0,0.05,0,0)" xlink:href="#bc"/><use transform="matrix(0.05,0,0,0.05,9,0)" xlink:href="#bl"/><use transform="matrix(0.05,0,0,0.05,19,0)" xlink:href="#aQ"/><use transform="matrix(0.05,0,0,0.05,29,0)" xlink:href="#bc"/><use transform="matrix(0.05,0,0,0.05,38,0)" xlink:href="#bm"/></g><g id="l"><use transform="matrix(0.05,0,0,0.05,0,0)" xlink:href="#bd"/><use transform="matrix(0.05,0,0,0.05,3.95,0)" xlink:href="#bi"/></g><g id="m"><use transform="matrix(0.05,0,0,0.05,0,0)" xlink:href="#bj"/><use transform="matrix(0.05,0,0,0.05,10,0)" xlink:href="#aQ"/><use transform="matrix(0.05,0,0,0.05,20,0)" xlink:href="#aQ"/><use transform="matrix(0.05,0,0,0.05,30,0)" xlink:href="#bk"/><use transform="matrix(0.05,0,0,0.05,35.95,0)" xlink:href="#aY"/></g><path d="M141 0L90-78 38 0H4l68-98-65-92h35l48 74 47-74h35l-64 92 68 98h-35" id="bn"/><g id="n"><use transform="matrix(0.05,0,0,0.05,0,0)" xlink:href="#aQ"/><use transform="matrix(0.05,0,0,0.05,10,0)" xlink:href="#bn"/><use transform="matrix(0.05,0,0,0.05,19,0)" xlink:href="#bd"/><use transform="matrix(0.05,0,0,0.05,22.95,0)" xlink:href="#aY"/><use transform="matrix(0.05,0,0,0.05,31.950000000000003,0)" xlink:href="#bg"/></g><path fill="#333" d="M146-102V0H94v-102L6-248h54l60 105 60-105h54" id="bo"/><path fill="#333" d="M185-48c-13 30-37 53-82 52C43 2 14-33 14-96s30-98 90-98c62 0 83 45 84 108H66c0 31 8 55 39 56 18 0 30-7 34-22zm-45-69c5-46-57-63-70-21-2 6-4 13-4 21h74" id="bp"/><path fill="#333" d="M137-138c1-29-70-34-71-4 15 46 118 7 119 86 1 83-164 76-172 9l43-7c4 19 20 25 44 25 33 8 57-30 24-41C81-84 22-81 20-136c-2-80 154-74 161-7" id="bq"/><g id="o"><use transform="matrix(0.04938271604938272,0,0,0.04938271604938272,0,0)" xlink:href="#bo"/><use transform="matrix(0.04938271604938272,0,0,0.04938271604938272,10.864197530864198,0)" xlink:href="#bp"/><use transform="matrix(0.04938271604938272,0,0,0.04938271604938272,20.74074074074074,0)" xlink:href="#bq"/></g><path fill="#333" d="M175 0L67-191c6 58 2 128 3 191H24v-248h59L193-55c-6-58-2-129-3-193h46V0h-61" id="br"/><path fill="#333" d="M110-194c64 0 96 36 96 99 0 64-35 99-97 99-61 0-95-36-95-99 0-62 34-99 96-99zm-1 164c35 0 45-28 45-65 0-40-10-65-43-65-34 0-45 26-45 65 0 36 10 65 43 65" id="bs"/><g id="p"><use transform="matrix(0.04938271604938272,0,0,0.04938271604938272,0,0)" xlink:href="#br"/><use transform="matrix(0.04938271604938272,0,0,0.04938271604938272,12.790123456790125,0)" xlink:href="#bs"/></g><g id="q"><use transform="matrix(0.05,0,0,0.05,0,0)" xlink:href="#aQ"/><use transform="matrix(0.05,0,0,0.05,10,0)" xlink:href="#bn"/><use transform="matrix(0.05,0,0,0.05,19,0)" xlink:href="#bc"/><use transform="matrix(0.05,0,0,0.05,28,0)" xlink:href="#aQ"/><use transform="matrix(0.05,0,0,0.05,38,0)" xlink:href="#bj"/><use transform="matrix(0.05,0,0,0.05,48,0)" xlink:href="#bg"/><use transform="matrix(0.05,0,0,0.05,53,0)" xlink:href="#bd"/><use transform="matrix(0.05,0,0,0.05,56.95,0)" xlink:href="#bh"/><use transform="matrix(0.05,0,0,0.05,66.95,0)" xlink:href="#aR"/></g><g id="r"><use transform="matrix(0.05,0,0,0.05,0,0)" xlink:href="#aR"/><use transform="matrix(0.05,0,0,0.05,10,0)" xlink:href="#bh"/><use transform="matrix(0.05,0,0,0.05,20,0)" xlink:href="#bg"/><use transform="matrix(0.05,0,0,0.05,25,0)" xlink:href="#bd"/><use transform="matrix(0.05,0,0,0.05,28.950000000000003,0)" xlink:href="#bi"/><use transform="matrix(0.05,0,0,0.05,33.95,0)" xlink:href="#bd"/><use transform="matrix(0.05,0,0,0.05,37.900000000000006,0)" xlink:href="#bc"/><use transform="matrix(0.05,0,0,0.05,46.900000000000006,0)" xlink:href="#aZ"/><use transform="matrix(0.05,0,0,0.05,56.900000000000006,0)" xlink:href="#bg"/><use transform="matrix(0.05,0,0,0.05,61.900000000000006,0)" xlink:href="#bd"/><use transform="matrix(0.05,0,0,0.05,65.85000000000001,0)" xlink:href="#bh"/><use transform="matrix(0.05,0,0,0.05,75.85000000000001,0)" xlink:href="#aR"/></g><g id="s"><use transform="matrix(0.05,0,0,0.05,0,0)" xlink:href="#bb"/><use transform="matrix(0.05,0,0,0.05,12.950000000000001,0)" xlink:href="#aQ"/><use transform="matrix(0.05,0,0,0.05,22.950000000000003,0)" xlink:href="#bc"/><use transform="matrix(0.05,0,0,0.05,31.950000000000003,0)" xlink:href="#aQ"/><use transform="matrix(0.05,0,0,0.05,41.95,0)" xlink:href="#bd"/><use transform="matrix(0.05,0,0,0.05,45.900000000000006,0)" xlink:href="#be"/><use transform="matrix(0.05,0,0,0.05,54.900000000000006,0)" xlink:href="#aQ"/></g><path d="M30 0v-248h187v28H63v79h144v27H63v87h162V0H30" id="bt"/><g id="t"><use transform="matrix(0.05,0,0,0.05,0,0)" xlink:href="#bt"/><use transform="matrix(0.05,0,0,0.05,12,0)" xlink:href="#aR"/><use transform="matrix(0.05,0,0,0.05,22,0)" xlink:href="#aS"/></g><path d="M115-194c53 0 69 39 70 98 0 66-23 100-70 100C84 3 66-7 56-30L54 0H23l1-261h32v101c10-23 28-34 59-34zm-8 174c40 0 45-34 45-75 0-40-5-75-45-74-42 0-51 32-51 76 0 43 10 73 51 73" id="bu"/><g id="u"><use transform="matrix(0.05,0,0,0.05,0,0)" xlink:href="#bt"/><use transform="matrix(0.05,0,0,0.05,12,0)" xlink:href="#aY"/><use transform="matrix(0.05,0,0,0.05,21,0)" xlink:href="#bg"/><use transform="matrix(0.05,0,0,0.05,26,0)" xlink:href="#aZ"/><use transform="matrix(0.05,0,0,0.05,36,0)" xlink:href="#bu"/><use transform="matrix(0.05,0,0,0.05,46,0)" xlink:href="#bf"/><use transform="matrix(0.05,0,0,0.05,49.95,0)" xlink:href="#bd"/><use transform="matrix(0.05,0,0,0.05,53.900000000000006,0)" xlink:href="#aY"/><use transform="matrix(0.05,0,0,0.05,62.900000000000006,0)" xlink:href="#bl"/></g><g id="v"><use transform="matrix(0.05,0,0,0.05,0,0)" xlink:href="#bc"/><use transform="matrix(0.05,0,0,0.05,9,0)" xlink:href="#bh"/><use transform="matrix(0.05,0,0,0.05,19,0)" xlink:href="#aR"/><use transform="matrix(0.05,0,0,0.05,29,0)" xlink:href="#aR"/><use transform="matrix(0.05,0,0,0.05,39,0)" xlink:href="#aQ"/><use transform="matrix(0.05,0,0,0.05,49,0)" xlink:href="#bc"/><use transform="matrix(0.05,0,0,0.05,58,0)" xlink:href="#bg"/><use transform="matrix(0.05,0,0,0.05,63,0)" xlink:href="#bd"/><use transform="matrix(0.05,0,0,0.05,66.95,0)" xlink:href="#bh"/><use transform="matrix(0.05,0,0,0.05,76.95,0)" xlink:href="#aR"/></g><path d="M206 0h-36l-40-164L89 0H53L-1-190h32L70-26l43-164h34l41 164 42-164h31" id="bv"/><g id="w"><use transform="matrix(0.05,0,0,0.05,0,0)" xlink:href="#bv"/><use transform="matrix(0.05,0,0,0.05,12.950000000000001,0)" xlink:href="#bd"/><use transform="matrix(0.05,0,0,0.05,16.900000000000002,0)" xlink:href="#bg"/><use transform="matrix(0.05,0,0,0.05,21.900000000000002,0)" xlink:href="#bl"/></g><g id="x"><use transform="matrix(0.05,0,0,0.05,0,0)" xlink:href="#bh"/><use transform="matrix(0.05,0,0,0.05,10,0)" xlink:href="#bg"/><use transform="matrix(0.05,0,0,0.05,15,0)" xlink:href="#bl"/><use transform="matrix(0.05,0,0,0.05,25,0)" xlink:href="#aQ"/><use transform="matrix(0.05,0,0,0.05,35,0)" xlink:href="#bk"/></g><g id="y"><use transform="matrix(0.05,0,0,0.05,0,0)" xlink:href="#aP"/><use transform="matrix(0.05,0,0,0.05,12,0)" xlink:href="#bg"/><use transform="matrix(0.05,0,0,0.05,17,0)" xlink:href="#aZ"/><use transform="matrix(0.05,0,0,0.05,27,0)" xlink:href="#bk"/><use transform="matrix(0.05,0,0,0.05,32.95,0)" xlink:href="#bg"/></g><path d="M127-220V0H93v-220H8v-28h204v28h-85" id="bw"/><g id="z"><use transform="matrix(0.05,0,0,0.05,0,0)" xlink:href="#bw"/><use transform="matrix(0.05,0,0,0.05,8.950000000000001,0)" xlink:href="#aQ"/><use transform="matrix(0.05,0,0,0.05,18.950000000000003,0)" xlink:href="#bk"/><use transform="matrix(0.05,0,0,0.05,24.900000000000002,0)" xlink:href="#aX"/><use transform="matrix(0.05,0,0,0.05,39.85,0)" xlink:href="#bd"/><use transform="matrix(0.05,0,0,0.05,43.800000000000004,0)" xlink:href="#aR"/><use transform="matrix(0.05,0,0,0.05,53.800000000000004,0)" xlink:href="#aZ"/><use transform="matrix(0.05,0,0,0.05,63.800000000000004,0)" xlink:href="#bg"/><use transform="matrix(0.05,0,0,0.05,68.80000000000001,0)" xlink:href="#bh"/><use transform="matrix(0.05,0,0,0.05,78.80000000000001,0)" xlink:href="#bk"/></g><path fill="#3a414a" d="M233-177c-1 41-23 64-60 70L243 0h-38l-65-103H63V0H30v-248c88 3 205-21 203 71zM63-129c60-2 137 13 137-47 0-61-80-42-137-45v92" id="bx"/><path fill="#3a414a" d="M100-194c63 0 86 42 84 106H49c0 40 14 67 53 68 26 1 43-12 49-29l28 8c-11 28-37 45-77 45C44 4 14-33 15-96c1-61 26-98 85-98zm52 81c6-60-76-77-97-28-3 7-6 17-6 28h103" id="by"/><path fill="#3a414a" d="M135-143c-3-34-86-38-87 0 15 53 115 12 119 90S17 21 10-45l28-5c4 36 97 45 98 0-10-56-113-15-118-90-4-57 82-63 122-42 12 7 21 19 24 35" id="bz"/><path fill="#3a414a" d="M115-194c55 1 70 41 70 98S169 2 115 4C84 4 66-9 55-30l1 105H24l-1-265h31l2 30c10-21 28-34 59-34zm-8 174c40 0 45-34 45-75s-6-73-45-74c-42 0-51 32-51 76 0 43 10 73 51 73" id="bA"/><path fill="#3a414a" d="M100-194c62-1 85 37 85 99 1 63-27 99-86 99S16-35 15-95c0-66 28-99 85-99zM99-20c44 1 53-31 53-75 0-43-8-75-51-75s-53 32-53 75 10 74 51 75" id="bB"/><path fill="#3a414a" d="M117-194c89-4 53 116 60 194h-32v-121c0-31-8-49-39-48C34-167 62-67 57 0H25l-1-190h30c1 10-1 24 2 32 11-22 29-35 61-36" id="bC"/><path fill="#3a414a" d="M85-194c31 0 48 13 60 33l-1-100h32l1 261h-30c-2-10 0-23-3-31C134-8 116 4 85 4 32 4 16-35 15-94c0-66 23-100 70-100zm9 24c-40 0-46 34-46 75 0 40 6 74 45 74 42 0 51-32 51-76 0-42-9-74-50-73" id="bD"/><g id="A"><use transform="matrix(0.04938271604938272,0,0,0.04938271604938272,0,0)" xlink:href="#bx"/><use transform="matrix(0.04938271604938272,0,0,0.04938271604938272,12.790123456790125,0)" xlink:href="#by"/><use transform="matrix(0.04938271604938272,0,0,0.04938271604938272,22.66666666666667,0)" xlink:href="#bz"/><use transform="matrix(0.04938271604938272,0,0,0.04938271604938272,31.555555555555557,0)" xlink:href="#bA"/><use transform="matrix(0.04938271604938272,0,0,0.04938271604938272,41.4320987654321,0)" xlink:href="#bB"/><use transform="matrix(0.04938271604938272,0,0,0.04938271604938272,51.308641975308646,0)" xlink:href="#bC"/><use transform="matrix(0.04938271604938272,0,0,0.04938271604938272,61.18518518518519,0)" xlink:href="#bD"/></g><path fill="#3a414a" d="M206 0h-36l-40-164L89 0H53L-1-190h32L70-26l43-164h34l41 164 42-164h31" id="bE"/><path fill="#3a414a" d="M24-231v-30h32v30H24zM24 0v-190h32V0H24" id="bF"/><path fill="#3a414a" d="M59-47c-2 24 18 29 38 22v24C64 9 27 4 27-40v-127H5v-23h24l9-43h21v43h35v23H59v120" id="bG"/><path fill="#3a414a" d="M106-169C34-169 62-67 57 0H25v-261h32l-1 103c12-21 28-36 61-36 89 0 53 116 60 194h-32v-121c2-32-8-49-39-48" id="bH"/><g id="B"><use transform="matrix(0.04938271604938272,0,0,0.04938271604938272,0,0)" xlink:href="#bE"/><use transform="matrix(0.04938271604938272,0,0,0.04938271604938272,12.790123456790125,0)" xlink:href="#bF"/><use transform="matrix(0.04938271604938272,0,0,0.04938271604938272,16.69135802469136,0)" xlink:href="#bG"/><use transform="matrix(0.04938271604938272,0,0,0.04938271604938272,21.629629629629633,0)" xlink:href="#bH"/></g><path fill="#3a414a" d="M24 0v-261h32V0H24" id="bI"/><g id="C"><use transform="matrix(0.04938271604938272,0,0,0.04938271604938272,0,0)" xlink:href="#bI"/><use transform="matrix(0.04938271604938272,0,0,0.04938271604938272,3.901234567901235,0)" xlink:href="#bF"/><use transform="matrix(0.04938271604938272,0,0,0.04938271604938272,7.80246913580247,0)" xlink:href="#bz"/><use transform="matrix(0.04938271604938272,0,0,0.04938271604938272,16.69135802469136,0)" xlink:href="#bG"/></g><path fill="#3a414a" d="M101-234c-31-9-42 10-38 44h38v23H63V0H32v-167H5v-23h27c-7-52 17-82 69-68v24" id="bJ"/><g id="D"><use transform="matrix(0.04938271604938272,0,0,0.04938271604938272,0,0)" xlink:href="#bB"/><use transform="matrix(0.04938271604938272,0,0,0.04938271604938272,9.876543209876544,0)" xlink:href="#bJ"/></g><g id="E"><use transform="matrix(0.04938271604938272,0,0,0.04938271604938272,0,0)" xlink:href="#bJ"/><use transform="matrix(0.04938271604938272,0,0,0.04938271604938272,4.938271604938272,0)" xlink:href="#bF"/><use transform="matrix(0.04938271604938272,0,0,0.04938271604938272,8.839506172839506,0)" xlink:href="#bI"/><use transform="matrix(0.04938271604938272,0,0,0.04938271604938272,12.740740740740742,0)" xlink:href="#by"/></g><path fill="#3a414a" d="M96-169c-40 0-48 33-48 73s9 75 48 75c24 0 41-14 43-38l32 2c-6 37-31 61-74 61-59 0-76-41-82-99-10-93 101-131 147-64 4 7 5 14 7 22l-32 3c-4-21-16-35-41-35" id="bK"/><g id="F"><use transform="matrix(0.04938271604938272,0,0,0.04938271604938272,0,0)" xlink:href="#bA"/><use transform="matrix(0.04938271604938272,0,0,0.04938271604938272,9.876543209876544,0)" xlink:href="#bF"/><use transform="matrix(0.04938271604938272,0,0,0.04938271604938272,13.777777777777779,0)" xlink:href="#by"/><use transform="matrix(0.04938271604938272,0,0,0.04938271604938272,23.654320987654323,0)" xlink:href="#bK"/><use transform="matrix(0.04938271604938272,0,0,0.04938271604938272,32.543209876543216,0)" xlink:href="#by"/><use transform="matrix(0.04938271604938272,0,0,0.04938271604938272,42.41975308641976,0)" xlink:href="#bz"/></g><path fill="#3a414a" d="M108 0H70L1-190h34L89-25l56-165h34" id="bL"/><g id="G"><use transform="matrix(0.04938271604938272,0,0,0.04938271604938272,0,0)" xlink:href="#bx"/><use transform="matrix(0.04938271604938272,0,0,0.04938271604938272,12.790123456790125,0)" xlink:href="#by"/><use transform="matrix(0.04938271604938272,0,0,0.04938271604938272,22.66666666666667,0)" xlink:href="#bK"/><use transform="matrix(0.04938271604938272,0,0,0.04938271604938272,31.555555555555557,0)" xlink:href="#by"/><use transform="matrix(0.04938271604938272,0,0,0.04938271604938272,41.4320987654321,0)" xlink:href="#bF"/><use transform="matrix(0.04938271604938272,0,0,0.04938271604938272,45.333333333333336,0)" xlink:href="#bL"/><use transform="matrix(0.04938271604938272,0,0,0.04938271604938272,54.22222222222223,0)" xlink:href="#by"/></g><g id="H"><use transform="matrix(0.04938271604938272,0,0,0.04938271604938272,0,0)" xlink:href="#bI"/><use transform="matrix(0.04938271604938272,0,0,0.04938271604938272,3.901234567901235,0)" xlink:href="#bF"/><use transform="matrix(0.04938271604938272,0,0,0.04938271604938272,7.80246913580247,0)" xlink:href="#bz"/><use transform="matrix(0.04938271604938272,0,0,0.04938271604938272,16.69135802469136,0)" xlink:href="#bG"/></g><g id="I"><use transform="matrix(0.04938271604938272,0,0,0.04938271604938272,0,0)" xlink:href="#bB"/><use transform="matrix(0.04938271604938272,0,0,0.04938271604938272,9.876543209876544,0)" xlink:href="#bJ"/></g><path fill="#3a414a" d="M30-248c118-7 216 8 213 122C240-48 200 0 122 0H30v-248zM63-27c89 8 146-16 146-99s-60-101-146-95v194" id="bM"/><path fill="#3a414a" d="M114-163C36-179 61-72 57 0H25l-1-190h30c1 12-1 29 2 39 6-27 23-49 58-41v29" id="bN"/><path fill="#3a414a" d="M210-169c-67 3-38 105-44 169h-31v-121c0-29-5-50-35-48C34-165 62-65 56 0H25l-1-190h30c1 10-1 24 2 32 10-44 99-50 107 0 11-21 27-35 58-36 85-2 47 119 55 194h-31v-121c0-29-5-49-35-48" id="bO"/><g id="J"><use transform="matrix(0.04938271604938272,0,0,0.04938271604938272,0,0)" xlink:href="#bM"/><use transform="matrix(0.04938271604938272,0,0,0.04938271604938272,12.790123456790125,0)" xlink:href="#by"/><use transform="matrix(0.04938271604938272,0,0,0.04938271604938272,22.66666666666667,0)" xlink:href="#bG"/><use transform="matrix(0.04938271604938272,0,0,0.04938271604938272,27.604938271604947,0)" xlink:href="#by"/><use transform="matrix(0.04938271604938272,0,0,0.04938271604938272,37.48148148148149,0)" xlink:href="#bN"/><use transform="matrix(0.04938271604938272,0,0,0.04938271604938272,43.35802469135803,0)" xlink:href="#bO"/><use transform="matrix(0.04938271604938272,0,0,0.04938271604938272,58.12345679012347,0)" xlink:href="#bF"/><use transform="matrix(0.04938271604938272,0,0,0.04938271604938272,62.02469135802471,0)" xlink:href="#bC"/><use transform="matrix(0.04938271604938272,0,0,0.04938271604938272,71.90123456790124,0)" xlink:href="#by"/></g><g id="K"><use transform="matrix(0.04938271604938272,0,0,0.04938271604938272,0,0)" xlink:href="#bE"/><use transform="matrix(0.04938271604938272,0,0,0.04938271604938272,12.790123456790125,0)" xlink:href="#bH"/><use transform="matrix(0.04938271604938272,0,0,0.04938271604938272,22.66666666666667,0)" xlink:href="#bF"/><use transform="matrix(0.04938271604938272,0,0,0.04938271604938272,26.567901234567902,0)" xlink:href="#bK"/><use transform="matrix(0.04938271604938272,0,0,0.04938271604938272,35.4567901234568,0)" xlink:href="#bH"/></g><g id="L"><use transform="matrix(0.04938271604938272,0,0,0.04938271604938272,0,0)" xlink:href="#bA"/><use transform="matrix(0.04938271604938272,0,0,0.04938271604938272,9.876543209876544,0)" xlink:href="#bF"/><use transform="matrix(0.04938271604938272,0,0,0.04938271604938272,13.777777777777779,0)" xlink:href="#by"/><use transform="matrix(0.04938271604938272,0,0,0.04938271604938272,23.654320987654323,0)" xlink:href="#bK"/><use transform="matrix(0.04938271604938272,0,0,0.04938271604938272,32.543209876543216,0)" xlink:href="#by"/><use transform="matrix(0.04938271604938272,0,0,0.04938271604938272,42.41975308641976,0)" xlink:href="#bz"/></g><g id="M"><use transform="matrix(0.04938271604938272,0,0,0.04938271604938272,0,0)" xlink:href="#bG"/><use transform="matrix(0.04938271604938272,0,0,0.04938271604938272,4.938271604938272,0)" xlink:href="#bB"/></g><path fill="#3a414a" d="M141-36C126-15 110 5 73 4 37 3 15-17 15-53c-1-64 63-63 125-63 3-35-9-54-41-54-24 1-41 7-42 31l-33-3c5-37 33-52 76-52 45 0 72 20 72 64v82c-1 20 7 32 28 27v20c-31 9-61-2-59-35zM48-53c0 20 12 33 32 33 41-3 63-29 60-74-43 2-92-5-92 41" id="bP"/><g id="N"><use transform="matrix(0.04938271604938272,0,0,0.04938271604938272,0,0)" xlink:href="#bD"/><use transform="matrix(0.04938271604938272,0,0,0.04938271604938272,9.876543209876544,0)" xlink:href="#bB"/><use transform="matrix(0.04938271604938272,0,0,0.04938271604938272,19.75308641975309,0)" xlink:href="#bE"/><use transform="matrix(0.04938271604938272,0,0,0.04938271604938272,32.543209876543216,0)" xlink:href="#bC"/><use transform="matrix(0.04938271604938272,0,0,0.04938271604938272,42.41975308641976,0)" xlink:href="#bI"/><use transform="matrix(0.04938271604938272,0,0,0.04938271604938272,46.320987654320994,0)" xlink:href="#bB"/><use transform="matrix(0.04938271604938272,0,0,0.04938271604938272,56.19753086419754,0)" xlink:href="#bP"/><use transform="matrix(0.04938271604938272,0,0,0.04938271604938272,66.07407407407408,0)" xlink:href="#bD"/></g><path fill="#3a414a" d="M212-179c-10-28-35-45-73-45-59 0-87 40-87 99 0 60 29 101 89 101 43 0 62-24 78-52l27 14C228-24 195 4 139 4 59 4 22-46 18-125c-6-104 99-153 187-111 19 9 31 26 39 46" id="bQ"/><path fill="#3a414a" d="M143 0L79-87 56-68V0H24v-261h32v163l83-92h37l-77 82L181 0h-38" id="bR"/><g id="O"><use transform="matrix(0.04938271604938272,0,0,0.04938271604938272,0,0)" xlink:href="#bQ"/><use transform="matrix(0.04938271604938272,0,0,0.04938271604938272,12.790123456790125,0)" xlink:href="#bH"/><use transform="matrix(0.04938271604938272,0,0,0.04938271604938272,22.66666666666667,0)" xlink:href="#by"/><use transform="matrix(0.04938271604938272,0,0,0.04938271604938272,32.543209876543216,0)" xlink:href="#bK"/><use transform="matrix(0.04938271604938272,0,0,0.04938271604938272,41.4320987654321,0)" xlink:href="#bR"/></g><path fill="#3a414a" d="M179-190L93 31C79 59 56 82 12 73V49c39 6 53-20 64-50L1-190h34L92-34l54-156h33" id="bS"/><g id="P"><use transform="matrix(0.04938271604938272,0,0,0.04938271604938272,0,0)" xlink:href="#bH"/><use transform="matrix(0.04938271604938272,0,0,0.04938271604938272,9.876543209876544,0)" xlink:href="#bP"/><use transform="matrix(0.04938271604938272,0,0,0.04938271604938272,19.75308641975309,0)" xlink:href="#bz"/><use transform="matrix(0.04938271604938272,0,0,0.04938271604938272,28.641975308641978,0)" xlink:href="#bH"/><use transform="matrix(0.04938271604938272,0,0,0.04938271604938272,38.51851851851852,0)" xlink:href="#bR"/><use transform="matrix(0.04938271604938272,0,0,0.04938271604938272,47.407407407407405,0)" xlink:href="#by"/><use transform="matrix(0.04938271604938272,0,0,0.04938271604938272,57.28395061728394,0)" xlink:href="#bS"/></g><path fill="#3a414a" d="M185-189c-5-48-123-54-124 2 14 75 158 14 163 119 3 78-121 87-175 55-17-10-28-26-33-46l33-7c5 56 141 63 141-1 0-78-155-14-162-118-5-82 145-84 179-34 5 7 8 16 11 25" id="bT"/><g id="Q"><use transform="matrix(0.04938271604938272,0,0,0.04938271604938272,0,0)" xlink:href="#bT"/><use transform="matrix(0.04938271604938272,0,0,0.04938271604938272,11.851851851851853,0)" xlink:href="#by"/><use transform="matrix(0.04938271604938272,0,0,0.04938271604938272,21.7283950617284,0)" xlink:href="#bC"/><use transform="matrix(0.04938271604938272,0,0,0.04938271604938272,31.60493827160494,0)" xlink:href="#bD"/></g><path fill="#3a414a" d="M145-31C134-9 116 4 85 4 32 4 16-35 15-94c0-59 17-99 70-100 32-1 48 14 60 33 0-11-1-24 2-32h30l-1 268h-32zM93-21c41 0 51-33 51-76s-8-73-50-73c-40 0-46 35-46 75s5 74 45 74" id="bU"/><path fill="#3a414a" d="M84 4C-5 8 30-112 23-190h32v120c0 31 7 50 39 49 72-2 45-101 50-169h31l1 190h-30c-1-10 1-25-2-33-11 22-28 36-60 37" id="bV"/><g id="R"><use transform="matrix(0.04938271604938272,0,0,0.04938271604938272,0,0)" xlink:href="#bN"/><use transform="matrix(0.04938271604938272,0,0,0.04938271604938272,5.8765432098765435,0)" xlink:href="#by"/><use transform="matrix(0.04938271604938272,0,0,0.04938271604938272,15.753086419753087,0)" xlink:href="#bU"/><use transform="matrix(0.04938271604938272,0,0,0.04938271604938272,25.629629629629633,0)" xlink:href="#bV"/><use transform="matrix(0.04938271604938272,0,0,0.04938271604938272,35.50617283950618,0)" xlink:href="#by"/><use transform="matrix(0.04938271604938272,0,0,0.04938271604938272,45.38271604938272,0)" xlink:href="#bz"/><use transform="matrix(0.04938271604938272,0,0,0.04938271604938272,54.27160493827161,0)" xlink:href="#bG"/></g><g id="S"><use transform="matrix(0.04938271604938272,0,0,0.04938271604938272,0,0)" xlink:href="#bD"/><use transform="matrix(0.04938271604938272,0,0,0.04938271604938272,9.876543209876544,0)" xlink:href="#bB"/><use transform="matrix(0.04938271604938272,0,0,0.04938271604938272,19.75308641975309,0)" xlink:href="#bE"/><use transform="matrix(0.04938271604938272,0,0,0.04938271604938272,32.543209876543216,0)" xlink:href="#bC"/><use transform="matrix(0.04938271604938272,0,0,0.04938271604938272,42.41975308641976,0)" xlink:href="#bI"/><use transform="matrix(0.04938271604938272,0,0,0.04938271604938272,46.320987654320994,0)" xlink:href="#bB"/><use transform="matrix(0.04938271604938272,0,0,0.04938271604938272,56.19753086419754,0)" xlink:href="#bP"/><use transform="matrix(0.04938271604938272,0,0,0.04938271604938272,66.07407407407408,0)" xlink:href="#bD"/></g><g id="T"><use transform="matrix(0.04938271604938272,0,0,0.04938271604938272,0,0)" xlink:href="#bN"/><use transform="matrix(0.04938271604938272,0,0,0.04938271604938272,5.8765432098765435,0)" xlink:href="#by"/><use transform="matrix(0.04938271604938272,0,0,0.04938271604938272,15.753086419753087,0)" xlink:href="#bU"/><use transform="matrix(0.04938271604938272,0,0,0.04938271604938272,25.629629629629633,0)" xlink:href="#bV"/><use transform="matrix(0.04938271604938272,0,0,0.04938271604938272,35.50617283950618,0)" xlink:href="#by"/><use transform="matrix(0.04938271604938272,0,0,0.04938271604938272,45.38271604938272,0)" xlink:href="#bz"/><use transform="matrix(0.04938271604938272,0,0,0.04938271604938272,54.27160493827161,0)" xlink:href="#bG"/></g><path fill="#3a414a" d="M240 0l2-218c-23 76-54 145-80 218h-23L58-218 59 0H30v-248h44l77 211c21-75 51-140 76-211h43V0h-30" id="bW"/><path fill="#3a414a" d="M177-190C167-65 218 103 67 71c-23-6-38-20-44-43l32-5c15 47 100 32 89-28v-30C133-14 115 1 83 1 29 1 15-40 15-95c0-56 16-97 71-98 29-1 48 16 59 35 1-10 0-23 2-32h30zM94-22c36 0 50-32 50-73 0-42-14-75-50-75-39 0-46 34-46 75s6 73 46 73" id="bX"/><g id="U"><use transform="matrix(0.04938271604938272,0,0,0.04938271604938272,0,0)" xlink:href="#bW"/><use transform="matrix(0.04938271604938272,0,0,0.04938271604938272,14.765432098765434,0)" xlink:href="#by"/><use transform="matrix(0.04938271604938272,0,0,0.04938271604938272,24.641975308641978,0)" xlink:href="#bN"/><use transform="matrix(0.04938271604938272,0,0,0.04938271604938272,30.518518518518523,0)" xlink:href="#bX"/><use transform="matrix(0.04938271604938272,0,0,0.04938271604938272,40.39506172839506,0)" xlink:href="#by"/></g><g id="V"><use transform="matrix(0.04938271604938272,0,0,0.04938271604938272,0,0)" xlink:href="#bT"/><use transform="matrix(0.04938271604938272,0,0,0.04938271604938272,11.851851851851853,0)" xlink:href="#bP"/><use transform="matrix(0.04938271604938272,0,0,0.04938271604938272,21.7283950617284,0)" xlink:href="#bL"/><use transform="matrix(0.04938271604938272,0,0,0.04938271604938272,30.617283950617285,0)" xlink:href="#by"/></g><g id="W"><use transform="matrix(0.04938271604938272,0,0,0.04938271604938272,0,0)" xlink:href="#bG"/><use transform="matrix(0.04938271604938272,0,0,0.04938271604938272,4.938271604938272,0)" xlink:href="#bH"/><use transform="matrix(0.04938271604938272,0,0,0.04938271604938272,14.814814814814817,0)" xlink:href="#by"/></g><g id="X"><use transform="matrix(0.04938271604938272,0,0,0.04938271604938272,0,0)" xlink:href="#bA"/><use transform="matrix(0.04938271604938272,0,0,0.04938271604938272,9.876543209876544,0)" xlink:href="#bN"/><use transform="matrix(0.04938271604938272,0,0,0.04938271604938272,15.753086419753087,0)" xlink:href="#bB"/><use transform="matrix(0.04938271604938272,0,0,0.04938271604938272,25.629629629629633,0)" xlink:href="#bX"/><use transform="matrix(0.04938271604938272,0,0,0.04938271604938272,35.50617283950618,0)" xlink:href="#bN"/><use transform="matrix(0.04938271604938272,0,0,0.04938271604938272,41.38271604938272,0)" xlink:href="#by"/><use transform="matrix(0.04938271604938272,0,0,0.04938271604938272,51.25925925925927,0)" xlink:href="#bz"/><use transform="matrix(0.04938271604938272,0,0,0.04938271604938272,60.14814814814815,0)" xlink:href="#bz"/></g><path d="M232-93c-1 65-40 97-104 97C67 4 28-28 28-90v-158h33c8 89-33 224 67 224 102 0 64-133 71-224h33v155" id="bY"/><g id="Y"><use transform="matrix(0.05,0,0,0.05,0,0)" xlink:href="#bY"/><use transform="matrix(0.05,0,0,0.05,12.950000000000001,0)" xlink:href="#bj"/><use transform="matrix(0.05,0,0,0.05,22.950000000000003,0)" xlink:href="#aS"/><use transform="matrix(0.05,0,0,0.05,32.95,0)" xlink:href="#aZ"/><use transform="matrix(0.05,0,0,0.05,42.95,0)" xlink:href="#bg"/><use transform="matrix(0.05,0,0,0.05,47.95,0)" xlink:href="#aQ"/></g><g id="Z"><use transform="matrix(0.05,0,0,0.05,0,0)" xlink:href="#bg"/><use transform="matrix(0.05,0,0,0.05,5,0)" xlink:href="#bl"/><use transform="matrix(0.05,0,0,0.05,15,0)" xlink:href="#aQ"/></g><g id="aa"><use transform="matrix(0.05,0,0,0.05,0,0)" xlink:href="#bg"/><use transform="matrix(0.05,0,0,0.05,5,0)" xlink:href="#bl"/><use transform="matrix(0.05,0,0,0.05,15,0)" xlink:href="#aZ"/><use transform="matrix(0.05,0,0,0.05,25,0)" xlink:href="#bg"/></g><g id="ab"><use transform="matrix(0.05,0,0,0.05,0,0)" xlink:href="#bl"/><use transform="matrix(0.05,0,0,0.05,10,0)" xlink:href="#aZ"/><use transform="matrix(0.05,0,0,0.05,20,0)" xlink:href="#be"/><use transform="matrix(0.05,0,0,0.05,29,0)" xlink:href="#aQ"/></g><g id="ac"><use transform="matrix(0.05,0,0,0.05,0,0)" xlink:href="#bi"/><use transform="matrix(0.05,0,0,0.05,5,0)" xlink:href="#bd"/><use transform="matrix(0.05,0,0,0.05,8.95,0)" xlink:href="#bf"/><use transform="matrix(0.05,0,0,0.05,12.899999999999999,0)" xlink:href="#aQ"/></g><path d="M212-179c-10-28-35-45-73-45-59 0-87 40-87 99 0 60 29 101 89 101 43 0 62-24 78-52l27 14C228-24 195 4 139 4 59 4 22-46 18-125c-6-104 99-153 187-111 19 9 31 26 39 46" id="bZ"/><g id="ad"><use transform="matrix(0.05,0,0,0.05,0,0)" xlink:href="#bZ"/><use transform="matrix(0.05,0,0,0.05,12.950000000000001,0)" xlink:href="#bl"/><use transform="matrix(0.05,0,0,0.05,22.950000000000003,0)" xlink:href="#aQ"/><use transform="matrix(0.05,0,0,0.05,32.95,0)" xlink:href="#bc"/><use transform="matrix(0.05,0,0,0.05,41.95,0)" xlink:href="#bm"/></g><g id="ae"><use transform="matrix(0.05,0,0,0.05,0,0)" xlink:href="#bd"/><use transform="matrix(0.05,0,0,0.05,3.95,0)" xlink:href="#bi"/></g><g id="af"><use transform="matrix(0.05,0,0,0.05,0,0)" xlink:href="#bg"/><use transform="matrix(0.05,0,0,0.05,5,0)" xlink:href="#bl"/><use transform="matrix(0.05,0,0,0.05,15,0)" xlink:href="#aQ"/><use transform="matrix(0.05,0,0,0.05,25,0)" xlink:href="#bk"/><use transform="matrix(0.05,0,0,0.05,30.950000000000003,0)" xlink:href="#aQ"/></g><g id="ag"><use transform="matrix(0.05,0,0,0.05,0,0)" xlink:href="#aZ"/><use transform="matrix(0.05,0,0,0.05,10,0)" xlink:href="#bk"/><use transform="matrix(0.05,0,0,0.05,15.949999999999998,0)" xlink:href="#aQ"/></g><g id="ah"><use transform="matrix(0.05,0,0,0.05,0,0)" xlink:href="#bk"/><use transform="matrix(0.05,0,0,0.05,5.95,0)" xlink:href="#aQ"/><use transform="matrix(0.05,0,0,0.05,15.949999999999998,0)" xlink:href="#aX"/><use transform="matrix(0.05,0,0,0.05,30.899999999999995,0)" xlink:href="#aZ"/><use transform="matrix(0.05,0,0,0.05,40.9,0)" xlink:href="#bd"/><use transform="matrix(0.05,0,0,0.05,44.85,0)" xlink:href="#aR"/><use transform="matrix(0.05,0,0,0.05,54.85,0)" xlink:href="#bd"/><use transform="matrix(0.05,0,0,0.05,58.800000000000004,0)" xlink:href="#aR"/><use transform="matrix(0.05,0,0,0.05,68.80000000000001,0)" xlink:href="#ba"/></g><g id="ai"><use transform="matrix(0.05,0,0,0.05,0,0)" xlink:href="#bj"/><use transform="matrix(0.05,0,0,0.05,10,0)" xlink:href="#bd"/><use transform="matrix(0.05,0,0,0.05,13.949999999999998,0)" xlink:href="#aQ"/><use transform="matrix(0.05,0,0,0.05,23.95,0)" xlink:href="#bc"/><use transform="matrix(0.05,0,0,0.05,32.95,0)" xlink:href="#aQ"/><use transform="matrix(0.05,0,0,0.05,42.95,0)" xlink:href="#aY"/></g><path d="M84 4C-5 8 30-112 23-190h32v120c0 31 7 50 39 49 72-2 45-101 50-169h31l1 190h-30c-1-10 1-25-2-33-11 22-28 36-60 37" id="ca"/><g id="aj"><use transform="matrix(0.05,0,0,0.05,0,0)" xlink:href="#bc"/><use transform="matrix(0.05,0,0,0.05,9,0)" xlink:href="#ca"/><use transform="matrix(0.05,0,0,0.05,19,0)" xlink:href="#bk"/><use transform="matrix(0.05,0,0,0.05,24.95,0)" xlink:href="#bk"/><use transform="matrix(0.05,0,0,0.05,30.899999999999995,0)" xlink:href="#aQ"/><use transform="matrix(0.05,0,0,0.05,40.9,0)" xlink:href="#aR"/><use transform="matrix(0.05,0,0,0.05,50.9,0)" xlink:href="#bg"/></g><g id="ak"><use transform="matrix(0.05,0,0,0.05,0,0)" xlink:href="#bj"/><use transform="matrix(0.05,0,0,0.05,10,0)" xlink:href="#aQ"/><use transform="matrix(0.05,0,0,0.05,20,0)" xlink:href="#aQ"/><use transform="matrix(0.05,0,0,0.05,30,0)" xlink:href="#bk"/></g><g id="al"><use transform="matrix(0.04938271604938272,0,0,0.04938271604938272,0,0)" xlink:href="#bF"/><use transform="matrix(0.04938271604938272,0,0,0.04938271604938272,3.901234567901235,0)" xlink:href="#bJ"/></g><g id="am"><use transform="matrix(0.04938271604938272,0,0,0.04938271604938272,0,0)" xlink:href="#bP"/><use transform="matrix(0.04938271604938272,0,0,0.04938271604938272,9.876543209876544,0)" xlink:href="#bI"/><use transform="matrix(0.04938271604938272,0,0,0.04938271604938272,13.777777777777779,0)" xlink:href="#bI"/></g><g id="an"><use transform="matrix(0.04938271604938272,0,0,0.04938271604938272,0,0)" xlink:href="#bA"/><use transform="matrix(0.04938271604938272,0,0,0.04938271604938272,9.876543209876544,0)" xlink:href="#bF"/><use transform="matrix(0.04938271604938272,0,0,0.04938271604938272,13.777777777777779,0)" xlink:href="#by"/><use transform="matrix(0.04938271604938272,0,0,0.04938271604938272,23.654320987654323,0)" xlink:href="#bK"/><use transform="matrix(0.04938271604938272,0,0,0.04938271604938272,32.543209876543216,0)" xlink:href="#by"/><use transform="matrix(0.04938271604938272,0,0,0.04938271604938272,42.41975308641976,0)" xlink:href="#bz"/></g><g id="ao"><use transform="matrix(0.04938271604938272,0,0,0.04938271604938272,0,0)" xlink:href="#bH"/><use transform="matrix(0.04938271604938272,0,0,0.04938271604938272,9.876543209876544,0)" xlink:href="#bP"/><use transform="matrix(0.04938271604938272,0,0,0.04938271604938272,19.75308641975309,0)" xlink:href="#bL"/><use transform="matrix(0.04938271604938272,0,0,0.04938271604938272,28.641975308641978,0)" xlink:href="#by"/></g><path fill="#3a414a" d="M115-194c53 0 69 39 70 98 0 66-23 100-70 100C84 3 66-7 56-30L54 0H23l1-261h32v101c10-23 28-34 59-34zm-8 174c40 0 45-34 45-75 0-40-5-75-45-74-42 0-51 32-51 76 0 43 10 73 51 73" id="cb"/><g id="ap"><use transform="matrix(0.04938271604938272,0,0,0.04938271604938272,0,0)" xlink:href="#cb"/><use transform="matrix(0.04938271604938272,0,0,0.04938271604938272,9.876543209876544,0)" xlink:href="#by"/><use transform="matrix(0.04938271604938272,0,0,0.04938271604938272,19.75308641975309,0)" xlink:href="#by"/><use transform="matrix(0.04938271604938272,0,0,0.04938271604938272,29.629629629629633,0)" xlink:href="#bC"/></g><g id="aq"><use transform="matrix(0.04938271604938272,0,0,0.04938271604938272,0,0)" xlink:href="#bD"/><use transform="matrix(0.04938271604938272,0,0,0.04938271604938272,9.876543209876544,0)" xlink:href="#bB"/><use transform="matrix(0.04938271604938272,0,0,0.04938271604938272,19.75308641975309,0)" xlink:href="#bE"/><use transform="matrix(0.04938271604938272,0,0,0.04938271604938272,32.543209876543216,0)" xlink:href="#bC"/><use transform="matrix(0.04938271604938272,0,0,0.04938271604938272,42.41975308641976,0)" xlink:href="#bI"/><use transform="matrix(0.04938271604938272,0,0,0.04938271604938272,46.320987654320994,0)" xlink:href="#bB"/><use transform="matrix(0.04938271604938272,0,0,0.04938271604938272,56.19753086419754,0)" xlink:href="#bP"/><use transform="matrix(0.04938271604938272,0,0,0.04938271604938272,66.07407407407408,0)" xlink:href="#bD"/><use transform="matrix(0.04938271604938272,0,0,0.04938271604938272,75.95061728395062,0)" xlink:href="#by"/><use transform="matrix(0.04938271604938272,0,0,0.04938271604938272,85.82716049382717,0)" xlink:href="#bD"/></g><g id="ar"><use transform="matrix(0.05,0,0,0.05,0,0)" xlink:href="#aZ"/><use transform="matrix(0.05,0,0,0.05,10,0)" xlink:href="#bk"/><use transform="matrix(0.05,0,0,0.05,15.949999999999998,0)" xlink:href="#aQ"/></g><g id="as"><use transform="matrix(0.05,0,0,0.05,0,0)" xlink:href="#bk"/><use transform="matrix(0.05,0,0,0.05,5.95,0)" xlink:href="#aQ"/><use transform="matrix(0.05,0,0,0.05,15.949999999999998,0)" xlink:href="#aX"/><use transform="matrix(0.05,0,0,0.05,30.899999999999995,0)" xlink:href="#aZ"/><use transform="matrix(0.05,0,0,0.05,40.9,0)" xlink:href="#bd"/><use transform="matrix(0.05,0,0,0.05,44.85,0)" xlink:href="#aR"/><use transform="matrix(0.05,0,0,0.05,54.85,0)" xlink:href="#bd"/><use transform="matrix(0.05,0,0,0.05,58.800000000000004,0)" xlink:href="#aR"/><use transform="matrix(0.05,0,0,0.05,68.80000000000001,0)" xlink:href="#ba"/></g><g id="at"><use transform="matrix(0.05,0,0,0.05,0,0)" xlink:href="#bd"/><use transform="matrix(0.05,0,0,0.05,3.95,0)" xlink:href="#aR"/></g><g id="au"><use transform="matrix(0.05,0,0,0.05,0,0)" xlink:href="#bg"/><use transform="matrix(0.05,0,0,0.05,5,0)" xlink:href="#bl"/><use transform="matrix(0.05,0,0,0.05,15,0)" xlink:href="#aQ"/></g><g id="av"><use transform="matrix(0.05,0,0,0.05,0,0)" xlink:href="#bf"/><use transform="matrix(0.05,0,0,0.05,3.95,0)" xlink:href="#bd"/><use transform="matrix(0.05,0,0,0.05,7.9,0)" xlink:href="#aY"/><use transform="matrix(0.05,0,0,0.05,16.9,0)" xlink:href="#bg"/></g><path d="M63-220v92h138v28H63V0H30v-248h175v28H63" id="cc"/><path d="M33 0v-248h34V0H33" id="cd"/><path d="M30 0v-248h33v221h125V0H30" id="ce"/><g id="aw"><use transform="matrix(0.1111111111111111,0,0,0.1111111111111111,0,0)" xlink:href="#cc"/><use transform="matrix(0.1111111111111111,0,0,0.1111111111111111,24.333333333333332,0)" xlink:href="#cd"/><use transform="matrix(0.1111111111111111,0,0,0.1111111111111111,35.44444444444444,0)" xlink:href="#ce"/><use transform="matrix(0.1111111111111111,0,0,0.1111111111111111,57.666666666666664,0)" xlink:href="#bt"/></g><path d="M16-82v-28h88v28H16" id="cf"/><use transform="matrix(0.1111111111111111,0,0,0.1111111111111111,0,0)" xlink:href="#cf" id="ax"/><path d="M197 0v-115H63V0H30v-248h33v105h134v-105h34V0h-34" id="cg"/><path d="M205 0l-28-72H64L36 0H1l101-248h38L239 0h-34zm-38-99l-47-123c-12 45-31 82-46 123h93" id="ch"/><path d="M143 4C61 4 22-44 18-125c-5-107 100-154 193-111 17 8 29 25 37 43l-32 9c-13-25-37-40-76-40-61 0-88 39-88 99 0 61 29 100 91 101 35 0 62-11 79-27v-45h-74v-28h105v86C228-13 192 4 143 4" id="ci"/><g id="ay"><use transform="matrix(0.1111111111111111,0,0,0.1111111111111111,0,0)" xlink:href="#aP"/><use transform="matrix(0.1111111111111111,0,0,0.1111111111111111,26.666666666666664,0)" xlink:href="#cg"/><use transform="matrix(0.1111111111111111,0,0,0.1111111111111111,55.44444444444444,0)" xlink:href="#ch"/><use transform="matrix(0.1111111111111111,0,0,0.1111111111111111,82.11111111111111,0)" xlink:href="#bb"/><use transform="matrix(0.1111111111111111,0,0,0.1111111111111111,110.88888888888889,0)" xlink:href="#cd"/><use transform="matrix(0.1111111111111111,0,0,0.1111111111111111,122,0)" xlink:href="#aW"/><use transform="matrix(0.1111111111111111,0,0,0.1111111111111111,150.77777777777777,0)" xlink:href="#ci"/></g><path d="M240 0l2-218c-23 76-54 145-80 218h-23L58-218 59 0H30v-248h44l77 211c21-75 51-140 76-211h43V0h-30" id="cj"/><g id="az"><use transform="matrix(0.1111111111111111,0,0,0.1111111111111111,0,0)" xlink:href="#cj"/><use transform="matrix(0.1111111111111111,0,0,0.1111111111111111,33.22222222222222,0)" xlink:href="#aU"/><use transform="matrix(0.1111111111111111,0,0,0.1111111111111111,64.33333333333333,0)" xlink:href="#aT"/><use transform="matrix(0.1111111111111111,0,0,0.1111111111111111,93.1111111111111,0)" xlink:href="#bY"/><use transform="matrix(0.1111111111111111,0,0,0.1111111111111111,121.88888888888889,0)" xlink:href="#ce"/><use transform="matrix(0.1111111111111111,0,0,0.1111111111111111,144.1111111111111,0)" xlink:href="#bt"/></g></defs></g></svg>