<svg xmlns="http://www.w3.org/2000/svg" xmlns:xlink="http://www.w3.org/1999/xlink" xmlns:lucid="lucid" width="691.25" height="1581.59"><g transform="translate(107.50258651646982 752.7982185061019)" lucid:page-tab-id="2bIpWRciS51s"><path d="M-500-1000h1500v2000H-500z" fill="#fff"/><path d="M-86.5-451.45a6 6 0 0 1 6-6h288a6 6 0 0 1 6 6V801.8a6 6 0 0 1-6 6h-288a6 6 0 0 1-6-6z" stroke="#282c33" stroke-width="2" fill-opacity="0"/><path d="M-86.5-501.05a6 6 0 0 1 6-6h49.85a6 6 0 0 1 6 6v25.6a6 6 0 0 1-6 6H-80.5a6 6 0 0 1-6-6z" fill="#282c33"/><use xlink:href="#a" transform="matrix(1,0,0,1,-78.50258651646982,-496.6498973824948) translate(0 14.6)"/><path d="M241.25-451.45a6 6 0 0 1 6-6h309.5a6 6 0 0 1 6 6V801.8a6 6 0 0 1-6 6h-309.5a6 6 0 0 1-6-6z" stroke="#282c33" stroke-width="2" fill-opacity="0"/><path d="M241.25-501.05a6 6 0 0 1 6-6h64.2a6 6 0 0 1 6 6v25.6a6 6 0 0 1-6 6h-64.2a6 6 0 0 1-6-6z" fill="#282c33"/><use xlink:href="#b" transform="matrix(1,0,0,1,249.2516690039174,-496.6498973824948) translate(0 14.6)"/><path d="M-35.38-304.7a6 6 0 0 1 6-6h167.25a6 6 0 0 1 6 6v126.82a6 6 0 0 1-6 6H-29.38a6 6 0 0 1-6-6z" stroke="#282c33" stroke-width="2" fill="#dedeff"/><use xlink:href="#c" transform="matrix(1,0,0,1,-23.379714276663435,-298.7097222536445) translate(30.700000000000003 28.775)"/><use xlink:href="#d" transform="matrix(1,0,0,1,-23.379714276663435,-298.7097222536445) translate(77.7 28.775)"/><use xlink:href="#e" transform="matrix(1,0,0,1,-23.379714276663435,-298.7097222536445) translate(7.549999999999997 50.375)"/><use xlink:href="#f" transform="matrix(1,0,0,1,-23.379714276663435,-298.7097222536445) translate(85.5 50.375)"/><use xlink:href="#g" transform="matrix(1,0,0,1,-23.379714276663435,-298.7097222536445) translate(105.5 50.375)"/><use xlink:href="#h" transform="matrix(1,0,0,1,-23.379714276663435,-298.7097222536445) translate(11.599999999999994 71.97500000000001)"/><use xlink:href="#i" transform="matrix(1,0,0,1,-23.379714276663435,-298.7097222536445) translate(71.5 71.97500000000001)"/><use xlink:href="#j" transform="matrix(1,0,0,1,-23.379714276663435,-298.7097222536445) translate(91.5 71.97500000000001)"/><use xlink:href="#k" transform="matrix(1,0,0,1,-23.379714276663435,-298.7097222536445) translate(121.5 71.97500000000001)"/><use xlink:href="#l" transform="matrix(1,0,0,1,-23.379714276663435,-298.7097222536445) translate(22.549999999999997 93.57500000000002)"/><use xlink:href="#m" transform="matrix(1,0,0,1,-23.379714276663435,-298.7097222536445) translate(57.55 93.57500000000002)"/><use xlink:href="#n" transform="matrix(1,0,0,1,-23.379714276663435,-298.7097222536445) translate(104.45 93.57500000000002)"/><path d="M94.25-425.03c22.1 0 40 17.9 40 40s-17.9 40-40 40h-80c-22.1 0-40-17.9-40-40s17.9-40 40-40z" stroke="#282c33" stroke-width="2" fill="#dedeff"/><use xlink:href="#o" transform="matrix(1,0,0,1,-20.754005023265563,-420.0308796330751) translate(56.025 38.4625)"/><path d="M54.25-343.53v15.44" stroke="#3a414a" fill="none"/><path d="M54.72-343.52h-.95v-.5h.95z" stroke="#3a414a" stroke-width=".05" fill="#3a414a"/><path d="M54.25-313.33L49.6-327.6h9.28z" stroke="#3a414a" fill="#3a414a"/><path d="M311.25-294.9a6 6 0 0 1 6-6h148a6 6 0 0 1 6 6v108a6 6 0 0 1-6 6h-148a6 6 0 0 1-6-6z" stroke="#282c33" stroke-width="2" fill="#dedeff"/><use xlink:href="#p" transform="matrix(1,0,0,1,323.2516690039174,-288.8899808457695) translate(9.25 41.4)"/><use xlink:href="#d" transform="matrix(1,0,0,1,323.2516690039174,-288.8899808457695) translate(79.15 41.4)"/><use xlink:href="#q" transform="matrix(1,0,0,1,323.2516690039174,-288.8899808457695) translate(31.525 63)"/><path d="M431.25-420.9c22.1 0 40 17.92 40 40 0 22.1-17.9 40-40 40h-80c-22.1 0-40-17.9-40-40 0-22.08 17.9-40 40-40z" stroke="#282c33" stroke-width="2" fill="#dedeff"/><use xlink:href="#o" transform="matrix(1,0,0,1,316.2516690039174,-415.8899808457693) translate(56.025 38.4625)"/><path d="M391.25-339.4v21.13" stroke="#3a414a" fill="none"/><path d="M391.73-339.38h-.95v-.5h.95z" stroke="#3a414a" stroke-width=".05" fill="#3a414a"/><path d="M391.25-303.5l-4.63-14.27h9.27z" stroke="#3a414a" fill="#3a414a"/><path d="M145.37-241.2l148.5.2" stroke="#3a414a" fill="none"/><path d="M145.38-241.66v.95h-.5v-.96z" stroke="#3a414a" stroke-width=".05" fill="#3a414a"/><path d="M308.63-241l-14.27 4.63v-9.27z" stroke="#3a414a" fill="#3a414a"/><path d="M312 574.2a6 6 0 0 1 6-6h148a6 6 0 0 1 6 6v108a6 6 0 0 1-6 6H318a6 6 0 0 1-6-6z" stroke="#282c33" stroke-width="2" fill="#dedeff"/><use xlink:href="#r" transform="matrix(1,0,0,1,324.00025049712167,580.2017814938981) translate(17.025 41.4)"/><use xlink:href="#s" transform="matrix(1,0,0,1,324.00025049712167,580.2017814938981) translate(93.975 41.4)"/><use xlink:href="#t" transform="matrix(1,0,0,1,324.00025049712167,580.2017814938981) translate(5.224999999999994 63)"/><use xlink:href="#q" transform="matrix(1,0,0,1,324.00025049712167,580.2017814938981) translate(57.824999999999996 63)"/><path d="M310.5 628.2H161.26" stroke="#3a414a" fill="none"/><path d="M311 628.68h-.5v-.95h.5z" stroke="#3a414a" stroke-width=".05" fill="#3a414a"/><path d="M146.5 628.2l14.26-4.63v9.27z" stroke="#3a414a" fill="#3a414a"/><path d="M-16.13 574.2a6 6 0 0 1 6-6h148a6 6 0 0 1 6 6v108a6 6 0 0 1-6 6h-148a6 6 0 0 1-6-6z" stroke="#282c33" stroke-width="2" fill="#dedeff"/><use xlink:href="#u" transform="matrix(1,0,0,1,-4.128295769867691,580.2017814938981) translate(23.574999999999996 41.4)"/><use xlink:href="#s" transform="matrix(1,0,0,1,-4.128295769867691,580.2017814938981) translate(87.42500000000001 41.4)"/><use xlink:href="#v" transform="matrix(1,0,0,1,-4.128295769867691,580.2017814938981) translate(31.025 63)"/><path d="M312 392.2a6 6 0 0 1 6-6h148a6 6 0 0 1 6 6v120a6 6 0 0 1-6 6H318a6 6 0 0 1-6-6z" stroke="#282c33" stroke-width="2" fill="#dedeff"/><use xlink:href="#w" transform="matrix(1,0,0,1,324.00025049712167,398.2017814938979) translate(1.125 17.775)"/><use xlink:href="#x" transform="matrix(1,0,0,1,324.00025049712167,398.2017814938979) translate(60.025000000000006 17.775)"/><use xlink:href="#y" transform="matrix(1,0,0,1,324.00025049712167,398.2017814938979) translate(75.025 17.775)"/><use xlink:href="#z" transform="matrix(1,0,0,1,324.00025049712167,398.2017814938979) translate(112.97500000000001 17.775)"/><use xlink:href="#A" transform="matrix(1,0,0,1,324.00025049712167,398.2017814938979) translate(35.574999999999996 39.375)"/><use xlink:href="#B" transform="matrix(1,0,0,1,324.00025049712167,398.2017814938979) translate(54.52499999999999 39.375)"/><use xlink:href="#C" transform="matrix(1,0,0,1,324.00025049712167,398.2017814938979) translate(1.0749999999999886 60.975)"/><use xlink:href="#D" transform="matrix(1,0,0,1,324.00025049712167,398.2017814938979) translate(78.975 60.975)"/><use xlink:href="#s" transform="matrix(1,0,0,1,324.00025049712167,398.2017814938979) translate(109.925 60.975)"/><use xlink:href="#E" transform="matrix(1,0,0,1,324.00025049712167,398.2017814938979) translate(5.549999999999997 82.57500000000002)"/><use xlink:href="#F" transform="matrix(1,0,0,1,324.00025049712167,398.2017814938979) translate(61.449999999999996 82.57500000000002)"/><use xlink:href="#s" transform="matrix(1,0,0,1,324.00025049712167,398.2017814938979) translate(105.45 82.57500000000002)"/><use xlink:href="#G" transform="matrix(1,0,0,1,324.00025049712167,398.2017814938979) translate(56.55 104.17500000000001)"/><path d="M392 519.7v31.12" stroke="#3a414a" fill="none"/><path d="M392.48 519.7h-.96v-.5h.96z" stroke="#3a414a" stroke-width=".05" fill="#3a414a"/><path d="M392 565.58l-4.63-14.26h9.27z" stroke="#3a414a" fill="#3a414a"/><path d="M63.7 689.7l-.04 11.12" stroke="#3a414a" fill="none"/><path d="M64.17 689.72h-.95v-.52h.95z" stroke="#3a414a" stroke-width=".05" fill="#3a414a"/><path d="M63.62 715.58l-4.6-14.28 9.28.03z" stroke="#3a414a" fill="#3a414a"/><path d="M103.5 718.2c22.1 0 40 17.9 40 40s-17.9 40-40 40h-80c-22.1 0-40-17.9-40-40s17.9-40 40-40z" stroke="#282c33" stroke-width="2" fill="#dedeff"/><use xlink:href="#H" transform="matrix(1,0,0,1,-4.502586516469819,730.2017814938981) translate(52 31.9)"/><path d="M-86.5-725.8a6 6 0 0 1 6-6h637.25a6 6 0 0 1 6 6v156a6 6 0 0 1-6 6H-80.5a6 6 0 0 1-6-6z" stroke="#282c33" stroke-width="2" fill="#cfe4ff"/><use xlink:href="#I" transform="matrix(1,0,0,1,-81.50258651646982,-726.7982185061019) translate(176.16666666666669 86.3125)"/><use xlink:href="#J" transform="matrix(1,0,0,1,-81.50258651646982,-726.7982185061019) translate(293.05555555555554 86.3125)"/><path d="M391.52-179.4l.15 32.14" stroke="#3a414a" fill="none"/><path d="M392-179.38h-.95v-.5h.95z" stroke="#3a414a" stroke-width=".05" fill="#3a414a"/><path d="M391.73-132.5l-4.7-14.24 9.27-.04z" stroke="#3a414a" fill="#3a414a"/><path d="M387.1-128.33a8.47 8.47 0 0 1 9.8 0l74.9 53.06a4.25 4.25 0 0 1 0 6.94l-74.9 53.06a8.47 8.47 0 0 1-9.8 0l-74.9-53.06a4.25 4.25 0 0 1 0-6.94z" stroke="#282c33" stroke-width="2" fill="#dedeff"/><use xlink:href="#K" transform="matrix(1,0,0,1,319.3130801238203,-119.79821850610188) translate(42.03 29.4)"/><use xlink:href="#L" transform="matrix(1,0,0,1,319.3130801238203,-119.79821850610188) translate(94.03 29.4)"/><use xlink:href="#j" transform="matrix(1,0,0,1,319.3130801238203,-119.79821850610188) translate(29.055 51)"/><use xlink:href="#M" transform="matrix(1,0,0,1,319.3130801238203,-119.79821850610188) translate(59.055 51)"/><use xlink:href="#N" transform="matrix(1,0,0,1,319.3130801238203,-119.79821850610188) translate(86.955 51)"/><use xlink:href="#O" transform="matrix(1,0,0,1,319.3130801238203,-119.79821850610188) translate(44.029999999999994 72.60000000000001)"/><path d="M392.48 37.73h-.96v-6.36h.96zm0-27.7h-.96V-12.2h.96z" stroke="#3a414a" stroke-width=".05" fill="#3a414a"/><path d="M392-12.7l.48-.04v.55h-.96v-.54z" fill="#3a414a"/><path stroke="#3a414a" stroke-width=".05" fill="#3a414a"/><path d="M392 52.5l-4.63-14.27h9.27z" fill="#3a414a"/><path d="M392 54.03l-5.3-16.28h10.6zm-3.98-15.33L392 50.95l3.98-12.25z" stroke="#3a414a" stroke-width=".05" fill="#3a414a"/><g><use xlink:href="#P" transform="matrix(1,0,0,1,376.69160860804203,10.035114822908074) translate(0 14.222222222222223)"/></g><path d="M387.1 56.67a8.47 8.47 0 0 1 9.8 0l74.9 53.06a4.25 4.25 0 0 1 0 6.94l-74.9 53.06a8.47 8.47 0 0 1-9.8 0l-74.9-53.06a4.25 4.25 0 0 1 0-6.94z" stroke="#282c33" stroke-width="2" fill="#dedeff"/><g><use xlink:href="#K" transform="matrix(1,0,0,1,319.3130801238203,65.20178149389812) translate(42.03 29.4)"/><use xlink:href="#L" transform="matrix(1,0,0,1,319.3130801238203,65.20178149389812) translate(94.03 29.4)"/><use xlink:href="#j" transform="matrix(1,0,0,1,319.3130801238203,65.20178149389812) translate(19.555 51)"/><use xlink:href="#m" transform="matrix(1,0,0,1,319.3130801238203,65.20178149389812) translate(49.555 51)"/><use xlink:href="#N" transform="matrix(1,0,0,1,319.3130801238203,65.20178149389812) translate(96.455 51)"/><use xlink:href="#O" transform="matrix(1,0,0,1,319.3130801238203,65.20178149389812) translate(44.029999999999994 72.60000000000001)"/></g><path d="M392.2 172.78l-.04 6.3h-.95l.04-6.3z" stroke="#3a414a" stroke-width=".05" fill="#3a414a"/><path d="M392 172.3l.2-.02v.5h-.96v-.53z" fill="#3a414a"/><path stroke="#3a414a" stroke-width=".05" fill="#3a414a"/><path d="M391.55 205.58l-1.65-5.17h3.36z" fill="#3a414a"/><path d="M391.55 207.12l-2.15-6.7h1l1.16 3.63 1.2-3.64h1z" stroke="#3a414a" stroke-width=".05" fill="#3a414a"/><g><use xlink:href="#Q" transform="matrix(1,0,0,1,379.8281409377895,179.0722429807926) translate(0 14.222222222222223)"/></g><path d="M306.56 214.2a6 6 0 0 1 6-6h157.38a6 6 0 0 1 6 6v108a6 6 0 0 1-6 6H312.56a6 6 0 0 1-6-6z" stroke="#282c33" stroke-width="2" fill="#dedeff"/><g><use xlink:href="#R" transform="matrix(1,0,0,1,318.5644986306161,220.20178149389812) translate(3.549999999999997 20.4)"/><use xlink:href="#j" transform="matrix(1,0,0,1,318.5644986306161,220.20178149389812) translate(70.55 20.4)"/><use xlink:href="#S" transform="matrix(1,0,0,1,318.5644986306161,220.20178149389812) translate(100.55 20.4)"/><use xlink:href="#f" transform="matrix(1,0,0,1,318.5644986306161,220.20178149389812) translate(27.049999999999997 42)"/><use xlink:href="#j" transform="matrix(1,0,0,1,318.5644986306161,220.20178149389812) translate(47.05 42)"/><use xlink:href="#T" transform="matrix(1,0,0,1,318.5644986306161,220.20178149389812) translate(77.05 42)"/><use xlink:href="#U" transform="matrix(1,0,0,1,318.5644986306161,220.20178149389812) translate(103.95 42)"/><use xlink:href="#E" transform="matrix(1,0,0,1,318.5644986306161,220.20178149389812) translate(6.575000000000003 63.6)"/><use xlink:href="#V" transform="matrix(1,0,0,1,318.5644986306161,220.20178149389812) translate(62.475 63.6)"/><use xlink:href="#W" transform="matrix(1,0,0,1,318.5644986306161,220.20178149389812) translate(100.425 63.6)"/><use xlink:href="#j" transform="matrix(1,0,0,1,318.5644986306161,220.20178149389812) translate(46.55 85.20000000000002)"/><use xlink:href="#G" transform="matrix(1,0,0,1,318.5644986306161,220.20178149389812) translate(76.55 85.20000000000002)"/></g><path d="M477.44 268.2h29.3a6 6 0 0 1 6 6v348a6 6 0 0 1-6 6H489.4" stroke="#3a414a" fill="none"/><path d="M477.45 268.68h-.5v-.95h.5z" stroke="#3a414a" stroke-width=".05" fill="#3a414a"/><path d="M474.62 628.2l14.26-4.63v9.27z" stroke="#3a414a" fill="#3a414a"/><path d="M269.9 446.18l.06.9.2.83.33.8.44.75.56.66.66.57.74.45.8.33.85.2.88.08h19.2v.95h-19.24l-1-.08-1-.24-.93-.4-.87-.52-.77-.66-.66-.77-.53-.86-.4-.94-.23-1-.06-.98V201.66h.95zm39-517.5h-33.47l-.88.07-.85.2-.8.33-.74.45-.66.57-.56.66-.45.73-.34.8-.2.84-.07.88v246.1h-.96V-65.8l.07-1 .25-.98.4-.94.52-.87.66-.78.77-.66.87-.53.94-.4 1-.22 1-.07h33.5z" stroke="#3a414a" stroke-width=".05" fill="#3a414a"/><path d="M309.4-71.8l.06.48h-.56v-.95h.56z" fill="#3a414a"/><path stroke="#3a414a" stroke-width=".05" fill="#3a414a"/><path d="M309.38 452.2l-14.26 4.64v-9.27z" fill="#3a414a"/><path d="M310.92 452.2l-16.28 5.3v-10.6zm-15.33 3.98l12.25-3.98-12.26-3.98z" stroke="#3a414a" stroke-width=".05" fill="#3a414a"/><g><use xlink:href="#Q" transform="matrix(1,0,0,1,257.6084083839523,180.32982631591463) translate(0 14.222222222222223)"/></g><path d="M391.73 384.7l-.16-39.12" stroke="#3a414a" fill="none"/><path d="M392.2 385.2h-.95v-.5h.95z" stroke="#3a414a" stroke-width=".05" fill="#3a414a"/><path d="M391.5 330.82l4.7 14.25-9.27.03z" stroke="#3a414a" fill="#3a414a"/><path d="M543.22 660.9l-.07 1-.24.97-.38.94-.53.88-.67.77-.77.66-.87.54-.95.4-1 .23-.98.08h-47.4v-.95h47.36l.88-.07.86-.2.8-.34.74-.46.65-.56.57-.66.45-.74.33-.8.2-.84.07-.9V401.5h.95zm-5.46-548.1l1 .24.93.4.86.52.77.66.66.77.52.86.4.94.23 1 .07.98v261h-.95V119.2l-.07-.88-.2-.84-.33-.8-.45-.75-.57-.65-.65-.57-.74-.45-.8-.33-.85-.2-.87-.07H475.1v-.95h61.67z" stroke="#3a414a" stroke-width=".05" fill="#3a414a"/><path d="M475.1 113.68h-.56l.05-.48-.06-.47h.56z" fill="#3a414a"/><path stroke="#3a414a" stroke-width=".05" fill="#3a414a"/><path d="M488.88 671.5l-14.26-4.63 14.26-4.63z" fill="#3a414a"/><path d="M489.36 672.16l-16.28-5.3 16.28-5.28zm-13.2-5.3l12.25 4v-7.97z" stroke="#3a414a" stroke-width=".05" fill="#3a414a"/><g><use xlink:href="#Q" transform="matrix(1,0,0,1,530.946362854523,380.1650923170782) translate(0 14.222222222222223)"/></g><defs><path fill="#fff" d="M212-179c-10-28-35-45-73-45-59 0-87 40-87 99 0 60 29 101 89 101 43 0 62-24 78-52l27 14C228-24 195 4 139 4 59 4 22-46 18-125c-6-104 99-153 187-111 19 9 31 26 39 46" id="X"/><path fill="#fff" d="M24 0v-261h32V0H24" id="Y"/><path fill="#fff" d="M24-231v-30h32v30H24zM24 0v-190h32V0H24" id="Z"/><path fill="#fff" d="M100-194c63 0 86 42 84 106H49c0 40 14 67 53 68 26 1 43-12 49-29l28 8c-11 28-37 45-77 45C44 4 14-33 15-96c1-61 26-98 85-98zm52 81c6-60-76-77-97-28-3 7-6 17-6 28h103" id="aa"/><path fill="#fff" d="M117-194c89-4 53 116 60 194h-32v-121c0-31-8-49-39-48C34-167 62-67 57 0H25l-1-190h30c1 10-1 24 2 32 11-22 29-35 61-36" id="ab"/><path fill="#fff" d="M59-47c-2 24 18 29 38 22v24C64 9 27 4 27-40v-127H5v-23h24l9-43h21v43h35v23H59v120" id="ac"/><g id="a"><use transform="matrix(0.05,0,0,0.05,0,0)" xlink:href="#X"/><use transform="matrix(0.05,0,0,0.05,12.950000000000001,0)" xlink:href="#Y"/><use transform="matrix(0.05,0,0,0.05,16.900000000000002,0)" xlink:href="#Z"/><use transform="matrix(0.05,0,0,0.05,20.85,0)" xlink:href="#aa"/><use transform="matrix(0.05,0,0,0.05,30.85,0)" xlink:href="#ab"/><use transform="matrix(0.05,0,0,0.05,40.85,0)" xlink:href="#ac"/></g><path fill="#fff" d="M127-220V0H93v-220H8v-28h204v28h-85" id="ad"/><path fill="#fff" d="M114-163C36-179 61-72 57 0H25l-1-190h30c1 12-1 29 2 39 6-27 23-49 58-41v29" id="ae"/><path fill="#fff" d="M141-36C126-15 110 5 73 4 37 3 15-17 15-53c-1-64 63-63 125-63 3-35-9-54-41-54-24 1-41 7-42 31l-33-3c5-37 33-52 76-52 45 0 72 20 72 64v82c-1 20 7 32 28 27v20c-31 9-61-2-59-35zM48-53c0 20 12 33 32 33 41-3 63-29 60-74-43 2-92-5-92 41" id="af"/><path fill="#fff" d="M96-169c-40 0-48 33-48 73s9 75 48 75c24 0 41-14 43-38l32 2c-6 37-31 61-74 61-59 0-76-41-82-99-10-93 101-131 147-64 4 7 5 14 7 22l-32 3c-4-21-16-35-41-35" id="ag"/><path fill="#fff" d="M143 0L79-87 56-68V0H24v-261h32v163l83-92h37l-77 82L181 0h-38" id="ah"/><g id="b"><use transform="matrix(0.05,0,0,0.05,0,0)" xlink:href="#ad"/><use transform="matrix(0.05,0,0,0.05,10.3,0)" xlink:href="#ae"/><use transform="matrix(0.05,0,0,0.05,16.25,0)" xlink:href="#af"/><use transform="matrix(0.05,0,0,0.05,26.25,0)" xlink:href="#ag"/><use transform="matrix(0.05,0,0,0.05,35.25,0)" xlink:href="#ah"/><use transform="matrix(0.05,0,0,0.05,44.25,0)" xlink:href="#aa"/><use transform="matrix(0.05,0,0,0.05,54.25,0)" xlink:href="#ae"/></g><path d="M185-189c-5-48-123-54-124 2 14 75 158 14 163 119 3 78-121 87-175 55-17-10-28-26-33-46l33-7c5 56 141 63 141-1 0-78-155-14-162-118-5-82 145-84 179-34 5 7 8 16 11 25" id="ai"/><path d="M100-194c63 0 86 42 84 106H49c0 40 14 67 53 68 26 1 43-12 49-29l28 8c-11 28-37 45-77 45C44 4 14-33 15-96c1-61 26-98 85-98zm52 81c6-60-76-77-97-28-3 7-6 17-6 28h103" id="aj"/><path d="M117-194c89-4 53 116 60 194h-32v-121c0-31-8-49-39-48C34-167 62-67 57 0H25l-1-190h30c1 10-1 24 2 32 11-22 29-35 61-36" id="ak"/><path d="M85-194c31 0 48 13 60 33l-1-100h32l1 261h-30c-2-10 0-23-3-31C134-8 116 4 85 4 32 4 16-35 15-94c0-66 23-100 70-100zm9 24c-40 0-46 34-46 75 0 40 6 74 45 74 42 0 51-32 51-76 0-42-9-74-50-73" id="al"/><g id="c"><use transform="matrix(0.05,0,0,0.05,0,0)" xlink:href="#ai"/><use transform="matrix(0.05,0,0,0.05,12,0)" xlink:href="#aj"/><use transform="matrix(0.05,0,0,0.05,22,0)" xlink:href="#ak"/><use transform="matrix(0.05,0,0,0.05,32,0)" xlink:href="#al"/></g><path d="M197 0v-115H63V0H30v-248h33v105h134v-105h34V0h-34" id="am"/><path d="M205 0l-28-72H64L36 0H1l101-248h38L239 0h-34zm-38-99l-47-123c-12 45-31 82-46 123h93" id="an"/><path d="M137 0h-34L2-248h35l83 218 83-218h36" id="ao"/><path d="M30 0v-248h187v28H63v79h144v27H63v87h162V0H30" id="ap"/><g id="d"><use transform="matrix(0.05,0,0,0.05,0,0)" xlink:href="#am"/><use transform="matrix(0.05,0,0,0.05,12.950000000000001,0)" xlink:href="#an"/><use transform="matrix(0.05,0,0,0.05,23.6,0)" xlink:href="#ao"/><use transform="matrix(0.05,0,0,0.05,35.6,0)" xlink:href="#ap"/></g><path d="M210-169c-67 3-38 105-44 169h-31v-121c0-29-5-50-35-48C34-165 62-65 56 0H25l-1-190h30c1 10-1 24 2 32 10-44 99-50 107 0 11-21 27-35 58-36 85-2 47 119 55 194h-31v-121c0-29-5-49-35-48" id="aq"/><path d="M135-143c-3-34-86-38-87 0 15 53 115 12 119 90S17 21 10-45l28-5c4 36 97 45 98 0-10-56-113-15-118-90-4-57 82-63 122-42 12 7 21 19 24 35" id="ar"/><path d="M141-36C126-15 110 5 73 4 37 3 15-17 15-53c-1-64 63-63 125-63 3-35-9-54-41-54-24 1-41 7-42 31l-33-3c5-37 33-52 76-52 45 0 72 20 72 64v82c-1 20 7 32 28 27v20c-31 9-61-2-59-35zM48-53c0 20 12 33 32 33 41-3 63-29 60-74-43 2-92-5-92 41" id="as"/><path d="M177-190C167-65 218 103 67 71c-23-6-38-20-44-43l32-5c15 47 100 32 89-28v-30C133-14 115 1 83 1 29 1 15-40 15-95c0-56 16-97 71-98 29-1 48 16 59 35 1-10 0-23 2-32h30zM94-22c36 0 50-32 50-73 0-42-14-75-50-75-39 0-46 34-46 75s6 73 46 73" id="at"/><g id="e"><use transform="matrix(0.05,0,0,0.05,0,0)" xlink:href="#aq"/><use transform="matrix(0.05,0,0,0.05,14.950000000000001,0)" xlink:href="#aj"/><use transform="matrix(0.05,0,0,0.05,24.950000000000003,0)" xlink:href="#ar"/><use transform="matrix(0.05,0,0,0.05,33.95,0)" xlink:href="#ar"/><use transform="matrix(0.05,0,0,0.05,42.95,0)" xlink:href="#as"/><use transform="matrix(0.05,0,0,0.05,52.95,0)" xlink:href="#at"/><use transform="matrix(0.05,0,0,0.05,62.95,0)" xlink:href="#aj"/></g><path d="M59-47c-2 24 18 29 38 22v24C64 9 27 4 27-40v-127H5v-23h24l9-43h21v43h35v23H59v120" id="au"/><path d="M100-194c62-1 85 37 85 99 1 63-27 99-86 99S16-35 15-95c0-66 28-99 85-99zM99-20c44 1 53-31 53-75 0-43-8-75-51-75s-53 32-53 75 10 74 51 75" id="av"/><g id="f"><use transform="matrix(0.05,0,0,0.05,0,0)" xlink:href="#au"/><use transform="matrix(0.05,0,0,0.05,5,0)" xlink:href="#av"/></g><path d="M24-231v-30h32v30H24zM24 0v-190h32V0H24" id="aw"/><path d="M101-234c-31-9-42 10-38 44h38v23H63V0H32v-167H5v-23h27c-7-52 17-82 69-68v24" id="ax"/><path d="M179-190L93 31C79 59 56 82 12 73V49c39 6 53-20 64-50L1-190h34L92-34l54-156h33" id="ay"/><g id="g"><use transform="matrix(0.05,0,0,0.05,0,0)" xlink:href="#ak"/><use transform="matrix(0.05,0,0,0.05,10,0)" xlink:href="#av"/><use transform="matrix(0.05,0,0,0.05,20,0)" xlink:href="#au"/><use transform="matrix(0.05,0,0,0.05,25,0)" xlink:href="#aw"/><use transform="matrix(0.05,0,0,0.05,28.950000000000003,0)" xlink:href="#ax"/><use transform="matrix(0.05,0,0,0.05,33.95,0)" xlink:href="#ay"/></g><path d="M114-163C36-179 61-72 57 0H25l-1-190h30c1 12-1 29 2 39 6-27 23-49 58-41v29" id="az"/><path d="M96-169c-40 0-48 33-48 73s9 75 48 75c24 0 41-14 43-38l32 2c-6 37-31 61-74 61-59 0-76-41-82-99-10-93 101-131 147-64 4 7 5 14 7 22l-32 3c-4-21-16-35-41-35" id="aA"/><path d="M143 0L79-87 56-68V0H24v-261h32v163l83-92h37l-77 82L181 0h-38" id="aB"/><g id="h"><use transform="matrix(0.05,0,0,0.05,0,0)" xlink:href="#au"/><use transform="matrix(0.05,0,0,0.05,5,0)" xlink:href="#az"/><use transform="matrix(0.05,0,0,0.05,10.95,0)" xlink:href="#as"/><use transform="matrix(0.05,0,0,0.05,20.95,0)" xlink:href="#aA"/><use transform="matrix(0.05,0,0,0.05,29.950000000000003,0)" xlink:href="#aB"/><use transform="matrix(0.05,0,0,0.05,38.95,0)" xlink:href="#aj"/><use transform="matrix(0.05,0,0,0.05,48.95,0)" xlink:href="#az"/></g><g id="i"><use transform="matrix(0.05,0,0,0.05,0,0)" xlink:href="#av"/><use transform="matrix(0.05,0,0,0.05,10,0)" xlink:href="#ax"/></g><path d="M106-169C34-169 62-67 57 0H25v-261h32l-1 103c12-21 28-36 61-36 89 0 53 116 60 194h-32v-121c2-32-8-49-39-48" id="aC"/><g id="j"><use transform="matrix(0.05,0,0,0.05,0,0)" xlink:href="#au"/><use transform="matrix(0.05,0,0,0.05,5,0)" xlink:href="#aC"/><use transform="matrix(0.05,0,0,0.05,15,0)" xlink:href="#aj"/></g><path d="M24 0v-261h32V0H24" id="aD"/><g id="k"><use transform="matrix(0.05,0,0,0.05,0,0)" xlink:href="#ax"/><use transform="matrix(0.05,0,0,0.05,5,0)" xlink:href="#aw"/><use transform="matrix(0.05,0,0,0.05,8.95,0)" xlink:href="#aD"/><use transform="matrix(0.05,0,0,0.05,12.899999999999999,0)" xlink:href="#aj"/></g><g id="l"><use transform="matrix(0.05,0,0,0.05,0,0)" xlink:href="#au"/><use transform="matrix(0.05,0,0,0.05,5,0)" xlink:href="#aC"/><use transform="matrix(0.05,0,0,0.05,15,0)" xlink:href="#as"/><use transform="matrix(0.05,0,0,0.05,25,0)" xlink:href="#au"/></g><g id="m"><use transform="matrix(0.05,0,0,0.05,0,0)" xlink:href="#aA"/><use transform="matrix(0.05,0,0,0.05,9,0)" xlink:href="#aD"/><use transform="matrix(0.05,0,0,0.05,12.949999999999998,0)" xlink:href="#aw"/><use transform="matrix(0.05,0,0,0.05,16.9,0)" xlink:href="#aj"/><use transform="matrix(0.05,0,0,0.05,26.899999999999995,0)" xlink:href="#ak"/><use transform="matrix(0.05,0,0,0.05,36.9,0)" xlink:href="#au"/></g><g id="n"><use transform="matrix(0.05,0,0,0.05,0,0)" xlink:href="#aC"/><use transform="matrix(0.05,0,0,0.05,10,0)" xlink:href="#as"/><use transform="matrix(0.05,0,0,0.05,20,0)" xlink:href="#ar"/></g><g id="o"><use transform="matrix(0.05,0,0,0.05,0,0)" xlink:href="#ai"/><use transform="matrix(0.05,0,0,0.05,12,0)" xlink:href="#au"/><use transform="matrix(0.05,0,0,0.05,17,0)" xlink:href="#as"/><use transform="matrix(0.05,0,0,0.05,27,0)" xlink:href="#az"/><use transform="matrix(0.05,0,0,0.05,32.95,0)" xlink:href="#au"/></g><path d="M233-177c-1 41-23 64-60 70L243 0h-38l-65-103H63V0H30v-248c88 3 205-21 203 71zM63-129c60-2 137 13 137-47 0-61-80-42-137-45v92" id="aE"/><path d="M108 0H70L1-190h34L89-25l56-165h34" id="aF"/><g id="p"><use transform="matrix(0.05,0,0,0.05,0,0)" xlink:href="#aE"/><use transform="matrix(0.05,0,0,0.05,12.950000000000001,0)" xlink:href="#aj"/><use transform="matrix(0.05,0,0,0.05,22.950000000000003,0)" xlink:href="#aA"/><use transform="matrix(0.05,0,0,0.05,31.950000000000003,0)" xlink:href="#aj"/><use transform="matrix(0.05,0,0,0.05,41.95,0)" xlink:href="#aw"/><use transform="matrix(0.05,0,0,0.05,45.900000000000006,0)" xlink:href="#aF"/><use transform="matrix(0.05,0,0,0.05,54.900000000000006,0)" xlink:href="#aj"/></g><g id="q"><use transform="matrix(0.05,0,0,0.05,0,0)" xlink:href="#aq"/><use transform="matrix(0.05,0,0,0.05,14.950000000000001,0)" xlink:href="#aj"/><use transform="matrix(0.05,0,0,0.05,24.950000000000003,0)" xlink:href="#ar"/><use transform="matrix(0.05,0,0,0.05,33.95,0)" xlink:href="#ar"/><use transform="matrix(0.05,0,0,0.05,42.95,0)" xlink:href="#as"/><use transform="matrix(0.05,0,0,0.05,52.95,0)" xlink:href="#at"/><use transform="matrix(0.05,0,0,0.05,62.95,0)" xlink:href="#aj"/></g><path d="M115-194c55 1 70 41 70 98S169 2 115 4C84 4 66-9 55-30l1 105H24l-1-265h31l2 30c10-21 28-34 59-34zm-8 174c40 0 45-34 45-75s-6-73-45-74c-42 0-51 32-51 76 0 43 10 73 51 73" id="aG"/><g id="r"><use transform="matrix(0.05,0,0,0.05,0,0)" xlink:href="#aE"/><use transform="matrix(0.05,0,0,0.05,12.950000000000001,0)" xlink:href="#aj"/><use transform="matrix(0.05,0,0,0.05,22.950000000000003,0)" xlink:href="#ar"/><use transform="matrix(0.05,0,0,0.05,31.950000000000003,0)" xlink:href="#aG"/><use transform="matrix(0.05,0,0,0.05,41.95,0)" xlink:href="#av"/><use transform="matrix(0.05,0,0,0.05,51.95,0)" xlink:href="#ak"/><use transform="matrix(0.05,0,0,0.05,61.95,0)" xlink:href="#al"/></g><g id="s"><use transform="matrix(0.05,0,0,0.05,0,0)" xlink:href="#au"/><use transform="matrix(0.05,0,0,0.05,5,0)" xlink:href="#aC"/><use transform="matrix(0.05,0,0,0.05,15,0)" xlink:href="#aj"/></g><g id="t"><use transform="matrix(0.05,0,0,0.05,0,0)" xlink:href="#am"/><use transform="matrix(0.05,0,0,0.05,12.950000000000001,0)" xlink:href="#an"/><use transform="matrix(0.05,0,0,0.05,23.6,0)" xlink:href="#ao"/><use transform="matrix(0.05,0,0,0.05,35.6,0)" xlink:href="#ap"/></g><path d="M30-248c118-7 216 8 213 122C240-48 200 0 122 0H30v-248zM63-27c89 8 146-16 146-99s-60-101-146-95v194" id="aH"/><g id="u"><use transform="matrix(0.05,0,0,0.05,0,0)" xlink:href="#aH"/><use transform="matrix(0.05,0,0,0.05,12.950000000000001,0)" xlink:href="#aw"/><use transform="matrix(0.05,0,0,0.05,16.900000000000002,0)" xlink:href="#ar"/><use transform="matrix(0.05,0,0,0.05,25.900000000000002,0)" xlink:href="#aG"/><use transform="matrix(0.05,0,0,0.05,35.900000000000006,0)" xlink:href="#aD"/><use transform="matrix(0.05,0,0,0.05,39.85000000000001,0)" xlink:href="#as"/><use transform="matrix(0.05,0,0,0.05,49.85000000000001,0)" xlink:href="#ay"/></g><g id="v"><use transform="matrix(0.05,0,0,0.05,0,0)" xlink:href="#az"/><use transform="matrix(0.05,0,0,0.05,5.95,0)" xlink:href="#aj"/><use transform="matrix(0.05,0,0,0.05,15.949999999999998,0)" xlink:href="#ar"/><use transform="matrix(0.05,0,0,0.05,24.95,0)" xlink:href="#aG"/><use transform="matrix(0.05,0,0,0.05,34.95,0)" xlink:href="#av"/><use transform="matrix(0.05,0,0,0.05,44.95,0)" xlink:href="#ak"/><use transform="matrix(0.05,0,0,0.05,54.95,0)" xlink:href="#ar"/><use transform="matrix(0.05,0,0,0.05,63.95,0)" xlink:href="#aj"/></g><path d="M212-179c-10-28-35-45-73-45-59 0-87 40-87 99 0 60 29 101 89 101 43 0 62-24 78-52l27 14C228-24 195 4 139 4 59 4 22-46 18-125c-6-104 99-153 187-111 19 9 31 26 39 46" id="aI"/><g id="w"><use transform="matrix(0.05,0,0,0.05,0,0)" xlink:href="#aI"/><use transform="matrix(0.05,0,0,0.05,12.950000000000001,0)" xlink:href="#az"/><use transform="matrix(0.05,0,0,0.05,18.900000000000002,0)" xlink:href="#aj"/><use transform="matrix(0.05,0,0,0.05,28.900000000000002,0)" xlink:href="#as"/><use transform="matrix(0.05,0,0,0.05,38.900000000000006,0)" xlink:href="#au"/><use transform="matrix(0.05,0,0,0.05,43.900000000000006,0)" xlink:href="#aj"/></g><use transform="matrix(0.05,0,0,0.05,0,0)" xlink:href="#as" id="x"/><path d="M206 0h-36l-40-164L89 0H53L-1-190h32L70-26l43-164h34l41 164 42-164h31" id="aJ"/><g id="y"><use transform="matrix(0.05,0,0,0.05,0,0)" xlink:href="#ak"/><use transform="matrix(0.05,0,0,0.05,10,0)" xlink:href="#aj"/><use transform="matrix(0.05,0,0,0.05,20,0)" xlink:href="#aJ"/></g><g id="z"><use transform="matrix(0.05,0,0,0.05,0,0)" xlink:href="#aD"/><use transform="matrix(0.05,0,0,0.05,3.95,0)" xlink:href="#aw"/><use transform="matrix(0.05,0,0,0.05,7.9,0)" xlink:href="#ar"/><use transform="matrix(0.05,0,0,0.05,16.9,0)" xlink:href="#au"/></g><g id="A"><use transform="matrix(0.05,0,0,0.05,0,0)" xlink:href="#aw"/><use transform="matrix(0.05,0,0,0.05,3.95,0)" xlink:href="#ak"/></g><g id="B"><use transform="matrix(0.05,0,0,0.05,0,0)" xlink:href="#aJ"/><use transform="matrix(0.05,0,0,0.05,12.950000000000001,0)" xlink:href="#aC"/><use transform="matrix(0.05,0,0,0.05,22.950000000000003,0)" xlink:href="#aw"/><use transform="matrix(0.05,0,0,0.05,26.900000000000002,0)" xlink:href="#aA"/><use transform="matrix(0.05,0,0,0.05,35.900000000000006,0)" xlink:href="#aC"/></g><g id="C"><use transform="matrix(0.05,0,0,0.05,0,0)" xlink:href="#aj"/><use transform="matrix(0.05,0,0,0.05,10,0)" xlink:href="#aD"/><use transform="matrix(0.05,0,0,0.05,13.949999999999998,0)" xlink:href="#aj"/><use transform="matrix(0.05,0,0,0.05,23.95,0)" xlink:href="#aq"/><use transform="matrix(0.05,0,0,0.05,38.9,0)" xlink:href="#aj"/><use transform="matrix(0.05,0,0,0.05,48.9,0)" xlink:href="#ak"/><use transform="matrix(0.05,0,0,0.05,58.900000000000006,0)" xlink:href="#au"/><use transform="matrix(0.05,0,0,0.05,63.900000000000006,0)" xlink:href="#ar"/></g><g id="D"><use transform="matrix(0.05,0,0,0.05,0,0)" xlink:href="#as"/><use transform="matrix(0.05,0,0,0.05,10,0)" xlink:href="#az"/><use transform="matrix(0.05,0,0,0.05,15.949999999999998,0)" xlink:href="#aj"/></g><g id="E"><use transform="matrix(0.05,0,0,0.05,0,0)" xlink:href="#aA"/><use transform="matrix(0.05,0,0,0.05,9,0)" xlink:href="#aD"/><use transform="matrix(0.05,0,0,0.05,12.949999999999998,0)" xlink:href="#aw"/><use transform="matrix(0.05,0,0,0.05,16.9,0)" xlink:href="#aj"/><use transform="matrix(0.05,0,0,0.05,26.899999999999995,0)" xlink:href="#ak"/><use transform="matrix(0.05,0,0,0.05,36.9,0)" xlink:href="#au"/><use transform="matrix(0.05,0,0,0.05,41.9,0)" xlink:href="#ar"/></g><g id="F"><use transform="matrix(0.05,0,0,0.05,0,0)" xlink:href="#aC"/><use transform="matrix(0.05,0,0,0.05,10,0)" xlink:href="#as"/><use transform="matrix(0.05,0,0,0.05,20,0)" xlink:href="#aF"/><use transform="matrix(0.05,0,0,0.05,29,0)" xlink:href="#aj"/></g><g id="G"><use transform="matrix(0.05,0,0,0.05,0,0)" xlink:href="#ax"/><use transform="matrix(0.05,0,0,0.05,5,0)" xlink:href="#aw"/><use transform="matrix(0.05,0,0,0.05,8.95,0)" xlink:href="#aD"/><use transform="matrix(0.05,0,0,0.05,12.899999999999999,0)" xlink:href="#aj"/></g><g id="H"><use transform="matrix(0.05,0,0,0.05,0,0)" xlink:href="#ap"/><use transform="matrix(0.05,0,0,0.05,12,0)" xlink:href="#ak"/><use transform="matrix(0.05,0,0,0.05,22,0)" xlink:href="#al"/></g><g id="I"><use transform="matrix(0.1111111111111111,0,0,0.1111111111111111,0,0)" xlink:href="#am"/><use transform="matrix(0.1111111111111111,0,0,0.1111111111111111,28.777777777777775,0)" xlink:href="#an"/><use transform="matrix(0.1111111111111111,0,0,0.1111111111111111,52.44444444444444,0)" xlink:href="#ao"/><use transform="matrix(0.1111111111111111,0,0,0.1111111111111111,79.11111111111111,0)" xlink:href="#ap"/></g><path d="M240 0l2-218c-23 76-54 145-80 218h-23L58-218 59 0H30v-248h44l77 211c21-75 51-140 76-211h43V0h-30" id="aK"/><path d="M140-251c81 0 123 46 123 126C263-46 219 4 140 4 59 4 17-45 17-125s42-126 123-126zm0 227c63 0 89-41 89-101s-29-99-89-99c-61 0-89 39-89 99S79-25 140-24" id="aL"/><path d="M232-93c-1 65-40 97-104 97C67 4 28-28 28-90v-158h33c8 89-33 224 67 224 102 0 64-133 71-224h33v155" id="aM"/><path d="M30 0v-248h33v221h125V0H30" id="aN"/><g id="J"><use transform="matrix(0.1111111111111111,0,0,0.1111111111111111,0,0)" xlink:href="#aK"/><use transform="matrix(0.1111111111111111,0,0,0.1111111111111111,33.22222222222222,0)" xlink:href="#aL"/><use transform="matrix(0.1111111111111111,0,0,0.1111111111111111,64.33333333333333,0)" xlink:href="#aH"/><use transform="matrix(0.1111111111111111,0,0,0.1111111111111111,93.1111111111111,0)" xlink:href="#aM"/><use transform="matrix(0.1111111111111111,0,0,0.1111111111111111,121.88888888888889,0)" xlink:href="#aN"/><use transform="matrix(0.1111111111111111,0,0,0.1111111111111111,144.1111111111111,0)" xlink:href="#ap"/></g><g id="K"><use transform="matrix(0.05,0,0,0.05,0,0)" xlink:href="#aA"/><use transform="matrix(0.05,0,0,0.05,9,0)" xlink:href="#aC"/><use transform="matrix(0.05,0,0,0.05,19,0)" xlink:href="#aj"/><use transform="matrix(0.05,0,0,0.05,29,0)" xlink:href="#aA"/><use transform="matrix(0.05,0,0,0.05,38,0)" xlink:href="#aB"/></g><g id="L"><use transform="matrix(0.05,0,0,0.05,0,0)" xlink:href="#aw"/><use transform="matrix(0.05,0,0,0.05,3.95,0)" xlink:href="#ax"/></g><g id="M"><use transform="matrix(0.05,0,0,0.05,0,0)" xlink:href="#ax"/><use transform="matrix(0.05,0,0,0.05,5,0)" xlink:href="#aw"/><use transform="matrix(0.05,0,0,0.05,8.95,0)" xlink:href="#aD"/><use transform="matrix(0.05,0,0,0.05,12.899999999999999,0)" xlink:href="#aj"/></g><g id="N"><use transform="matrix(0.05,0,0,0.05,0,0)" xlink:href="#aC"/><use transform="matrix(0.05,0,0,0.05,10,0)" xlink:href="#as"/><use transform="matrix(0.05,0,0,0.05,20,0)" xlink:href="#ar"/></g><path d="M141 0L90-78 38 0H4l68-98-65-92h35l48 74 47-74h35l-64 92 68 98h-35" id="aO"/><g id="O"><use transform="matrix(0.05,0,0,0.05,0,0)" xlink:href="#aj"/><use transform="matrix(0.05,0,0,0.05,10,0)" xlink:href="#aO"/><use transform="matrix(0.05,0,0,0.05,19,0)" xlink:href="#aw"/><use transform="matrix(0.05,0,0,0.05,22.95,0)" xlink:href="#ar"/><use transform="matrix(0.05,0,0,0.05,31.950000000000003,0)" xlink:href="#au"/><use transform="matrix(0.05,0,0,0.05,36.95,0)" xlink:href="#aj"/><use transform="matrix(0.05,0,0,0.05,46.95,0)" xlink:href="#al"/></g><path fill="#333" d="M146-102V0H94v-102L6-248h54l60 105 60-105h54" id="aP"/><path fill="#333" d="M185-48c-13 30-37 53-82 52C43 2 14-33 14-96s30-98 90-98c62 0 83 45 84 108H66c0 31 8 55 39 56 18 0 30-7 34-22zm-45-69c5-46-57-63-70-21-2 6-4 13-4 21h74" id="aQ"/><path fill="#333" d="M137-138c1-29-70-34-71-4 15 46 118 7 119 86 1 83-164 76-172 9l43-7c4 19 20 25 44 25 33 8 57-30 24-41C81-84 22-81 20-136c-2-80 154-74 161-7" id="aR"/><g id="P"><use transform="matrix(0.04938271604938272,0,0,0.04938271604938272,0,0)" xlink:href="#aP"/><use transform="matrix(0.04938271604938272,0,0,0.04938271604938272,10.864197530864198,0)" xlink:href="#aQ"/><use transform="matrix(0.04938271604938272,0,0,0.04938271604938272,20.74074074074074,0)" xlink:href="#aR"/></g><path fill="#333" d="M175 0L67-191c6 58 2 128 3 191H24v-248h59L193-55c-6-58-2-129-3-193h46V0h-61" id="aS"/><path fill="#333" d="M110-194c64 0 96 36 96 99 0 64-35 99-97 99-61 0-95-36-95-99 0-62 34-99 96-99zm-1 164c35 0 45-28 45-65 0-40-10-65-43-65-34 0-45 26-45 65 0 36 10 65 43 65" id="aT"/><g id="Q"><use transform="matrix(0.04938271604938272,0,0,0.04938271604938272,0,0)" xlink:href="#aS"/><use transform="matrix(0.04938271604938272,0,0,0.04938271604938272,12.790123456790125,0)" xlink:href="#aT"/></g><g id="R"><use transform="matrix(0.05,0,0,0.05,0,0)" xlink:href="#an"/><use transform="matrix(0.05,0,0,0.05,12,0)" xlink:href="#aG"/><use transform="matrix(0.05,0,0,0.05,22,0)" xlink:href="#aG"/><use transform="matrix(0.05,0,0,0.05,32,0)" xlink:href="#aj"/><use transform="matrix(0.05,0,0,0.05,42,0)" xlink:href="#ak"/><use transform="matrix(0.05,0,0,0.05,52,0)" xlink:href="#al"/></g><g id="S"><use transform="matrix(0.05,0,0,0.05,0,0)" xlink:href="#aA"/><use transform="matrix(0.05,0,0,0.05,9,0)" xlink:href="#aD"/><use transform="matrix(0.05,0,0,0.05,12.949999999999998,0)" xlink:href="#aw"/><use transform="matrix(0.05,0,0,0.05,16.9,0)" xlink:href="#aj"/><use transform="matrix(0.05,0,0,0.05,26.899999999999995,0)" xlink:href="#ak"/><use transform="matrix(0.05,0,0,0.05,36.9,0)" xlink:href="#au"/></g><g id="T"><use transform="matrix(0.05,0,0,0.05,0,0)" xlink:href="#aD"/><use transform="matrix(0.05,0,0,0.05,3.95,0)" xlink:href="#aw"/><use transform="matrix(0.05,0,0,0.05,7.9,0)" xlink:href="#ar"/><use transform="matrix(0.05,0,0,0.05,16.9,0)" xlink:href="#au"/></g><g id="U"><use transform="matrix(0.05,0,0,0.05,0,0)" xlink:href="#av"/><use transform="matrix(0.05,0,0,0.05,10,0)" xlink:href="#ax"/></g><g id="V"><use transform="matrix(0.05,0,0,0.05,0,0)" xlink:href="#aJ"/><use transform="matrix(0.05,0,0,0.05,12.950000000000001,0)" xlink:href="#aC"/><use transform="matrix(0.05,0,0,0.05,22.950000000000003,0)" xlink:href="#av"/></g><g id="W"><use transform="matrix(0.05,0,0,0.05,0,0)" xlink:href="#aC"/><use transform="matrix(0.05,0,0,0.05,10,0)" xlink:href="#as"/><use transform="matrix(0.05,0,0,0.05,20,0)" xlink:href="#aF"/><use transform="matrix(0.05,0,0,0.05,29,0)" xlink:href="#aj"/></g></defs></g></svg>